%TF.GenerationSoftware,KiCad,Pcbnew,7.0.7*%
%TF.CreationDate,2024-09-02T11:23:30-05:00*%
%TF.ProjectId,Module_RPI,4d6f6475-6c65-45f5-9250-492e6b696361,rev?*%
%TF.SameCoordinates,Original*%
%TF.FileFunction,Drillmap*%
%TF.FilePolarity,Positive*%
%FSLAX45Y45*%
G04 Gerber Fmt 4.5, Leading zero omitted, Abs format (unit mm)*
G04 Created by KiCad (PCBNEW 7.0.7) date 2024-09-02 11:23:30*
%MOMM*%
%LPD*%
G01*
G04 APERTURE LIST*
%ADD10C,0.100000*%
%ADD11C,0.200000*%
G04 APERTURE END LIST*
D10*
X4920000Y-13690000D02*
X5170000Y-13690000D01*
X4920000Y-9390000D02*
X4920000Y-13620000D01*
X15940000Y-8310000D02*
X15940000Y-5900000D01*
X15570000Y-13690000D02*
X15940000Y-13690000D01*
X15915000Y-5710000D02*
X5145000Y-5710000D01*
X4920000Y-9390000D02*
X4920000Y-5710000D01*
X4920000Y-5710000D02*
X5145000Y-5710000D01*
X4920000Y-13620000D02*
X4920000Y-13690000D01*
X15940000Y-5900000D02*
X15940000Y-5710000D01*
X15940000Y-5710000D02*
X15915000Y-5710000D01*
X15940000Y-8310000D02*
X15940000Y-13690000D01*
X15570000Y-13690000D02*
X5170000Y-13690000D01*
D11*
X5175777Y-14006484D02*
X5175777Y-13806484D01*
X5175777Y-13806484D02*
X5223396Y-13806484D01*
X5223396Y-13806484D02*
X5251967Y-13816008D01*
X5251967Y-13816008D02*
X5271015Y-13835055D01*
X5271015Y-13835055D02*
X5280539Y-13854103D01*
X5280539Y-13854103D02*
X5290063Y-13892198D01*
X5290063Y-13892198D02*
X5290063Y-13920769D01*
X5290063Y-13920769D02*
X5280539Y-13958865D01*
X5280539Y-13958865D02*
X5271015Y-13977912D01*
X5271015Y-13977912D02*
X5251967Y-13996960D01*
X5251967Y-13996960D02*
X5223396Y-14006484D01*
X5223396Y-14006484D02*
X5175777Y-14006484D01*
X5375777Y-14006484D02*
X5375777Y-13873150D01*
X5375777Y-13911246D02*
X5385301Y-13892198D01*
X5385301Y-13892198D02*
X5394824Y-13882674D01*
X5394824Y-13882674D02*
X5413872Y-13873150D01*
X5413872Y-13873150D02*
X5432920Y-13873150D01*
X5499586Y-14006484D02*
X5499586Y-13873150D01*
X5499586Y-13806484D02*
X5490063Y-13816008D01*
X5490063Y-13816008D02*
X5499586Y-13825531D01*
X5499586Y-13825531D02*
X5509110Y-13816008D01*
X5509110Y-13816008D02*
X5499586Y-13806484D01*
X5499586Y-13806484D02*
X5499586Y-13825531D01*
X5623396Y-14006484D02*
X5604348Y-13996960D01*
X5604348Y-13996960D02*
X5594824Y-13977912D01*
X5594824Y-13977912D02*
X5594824Y-13806484D01*
X5728158Y-14006484D02*
X5709110Y-13996960D01*
X5709110Y-13996960D02*
X5699586Y-13977912D01*
X5699586Y-13977912D02*
X5699586Y-13806484D01*
X5956729Y-14006484D02*
X5956729Y-13806484D01*
X5956729Y-13806484D02*
X6023396Y-13949341D01*
X6023396Y-13949341D02*
X6090062Y-13806484D01*
X6090062Y-13806484D02*
X6090062Y-14006484D01*
X6271015Y-14006484D02*
X6271015Y-13901722D01*
X6271015Y-13901722D02*
X6261491Y-13882674D01*
X6261491Y-13882674D02*
X6242443Y-13873150D01*
X6242443Y-13873150D02*
X6204348Y-13873150D01*
X6204348Y-13873150D02*
X6185301Y-13882674D01*
X6271015Y-13996960D02*
X6251967Y-14006484D01*
X6251967Y-14006484D02*
X6204348Y-14006484D01*
X6204348Y-14006484D02*
X6185301Y-13996960D01*
X6185301Y-13996960D02*
X6175777Y-13977912D01*
X6175777Y-13977912D02*
X6175777Y-13958865D01*
X6175777Y-13958865D02*
X6185301Y-13939817D01*
X6185301Y-13939817D02*
X6204348Y-13930293D01*
X6204348Y-13930293D02*
X6251967Y-13930293D01*
X6251967Y-13930293D02*
X6271015Y-13920769D01*
X6366253Y-13873150D02*
X6366253Y-14073150D01*
X6366253Y-13882674D02*
X6385301Y-13873150D01*
X6385301Y-13873150D02*
X6423396Y-13873150D01*
X6423396Y-13873150D02*
X6442443Y-13882674D01*
X6442443Y-13882674D02*
X6451967Y-13892198D01*
X6451967Y-13892198D02*
X6461491Y-13911246D01*
X6461491Y-13911246D02*
X6461491Y-13968388D01*
X6461491Y-13968388D02*
X6451967Y-13987436D01*
X6451967Y-13987436D02*
X6442443Y-13996960D01*
X6442443Y-13996960D02*
X6423396Y-14006484D01*
X6423396Y-14006484D02*
X6385301Y-14006484D01*
X6385301Y-14006484D02*
X6366253Y-13996960D01*
X6547205Y-13987436D02*
X6556729Y-13996960D01*
X6556729Y-13996960D02*
X6547205Y-14006484D01*
X6547205Y-14006484D02*
X6537682Y-13996960D01*
X6537682Y-13996960D02*
X6547205Y-13987436D01*
X6547205Y-13987436D02*
X6547205Y-14006484D01*
X6547205Y-13882674D02*
X6556729Y-13892198D01*
X6556729Y-13892198D02*
X6547205Y-13901722D01*
X6547205Y-13901722D02*
X6537682Y-13892198D01*
X6537682Y-13892198D02*
X6547205Y-13882674D01*
X6547205Y-13882674D02*
X6547205Y-13901722D01*
M02*
