%TF.GenerationSoftware,KiCad,Pcbnew,7.0.7*%
%TF.CreationDate,2024-08-30T11:48:46-05:00*%
%TF.ProjectId,Module_RPI,4d6f6475-6c65-45f5-9250-492e6b696361,rev?*%
%TF.SameCoordinates,Original*%
%TF.FileFunction,Soldermask,Top*%
%TF.FilePolarity,Negative*%
%FSLAX46Y46*%
G04 Gerber Fmt 4.6, Leading zero omitted, Abs format (unit mm)*
G04 Created by KiCad (PCBNEW 7.0.7) date 2024-08-30 11:48:46*
%MOMM*%
%LPD*%
G01*
G04 APERTURE LIST*
G04 Aperture macros list*
%AMRoundRect*
0 Rectangle with rounded corners*
0 $1 Rounding radius*
0 $2 $3 $4 $5 $6 $7 $8 $9 X,Y pos of 4 corners*
0 Add a 4 corners polygon primitive as box body*
4,1,4,$2,$3,$4,$5,$6,$7,$8,$9,$2,$3,0*
0 Add four circle primitives for the rounded corners*
1,1,$1+$1,$2,$3*
1,1,$1+$1,$4,$5*
1,1,$1+$1,$6,$7*
1,1,$1+$1,$8,$9*
0 Add four rect primitives between the rounded corners*
20,1,$1+$1,$2,$3,$4,$5,0*
20,1,$1+$1,$4,$5,$6,$7,0*
20,1,$1+$1,$6,$7,$8,$9,0*
20,1,$1+$1,$8,$9,$2,$3,0*%
G04 Aperture macros list end*
%ADD10RoundRect,0.250000X-0.375000X-0.625000X0.375000X-0.625000X0.375000X0.625000X-0.375000X0.625000X0*%
%ADD11RoundRect,0.250000X0.312500X0.625000X-0.312500X0.625000X-0.312500X-0.625000X0.312500X-0.625000X0*%
%ADD12RoundRect,0.250000X0.620000X0.845000X-0.620000X0.845000X-0.620000X-0.845000X0.620000X-0.845000X0*%
%ADD13O,1.740000X2.190000*%
%ADD14RoundRect,0.250000X0.400000X0.625000X-0.400000X0.625000X-0.400000X-0.625000X0.400000X-0.625000X0*%
%ADD15R,1.000000X1.500000*%
%ADD16C,6.404000*%
%ADD17RoundRect,0.250000X-0.300000X0.300000X-0.300000X-0.300000X0.300000X-0.300000X0.300000X0.300000X0*%
%ADD18RoundRect,0.250000X0.375000X0.625000X-0.375000X0.625000X-0.375000X-0.625000X0.375000X-0.625000X0*%
%ADD19R,1.700000X1.700000*%
%ADD20O,1.700000X1.700000*%
%ADD21RoundRect,0.102000X-0.762000X-0.762000X0.762000X-0.762000X0.762000X0.762000X-0.762000X0.762000X0*%
%ADD22C,1.728000*%
G04 APERTURE END LIST*
D10*
%TO.C,D42*%
X75700000Y-120600000D03*
X78500000Y-120600000D03*
%TD*%
D11*
%TO.C,R53*%
X56325000Y-113000000D03*
X53400000Y-113000000D03*
%TD*%
%TO.C,R43*%
X73862500Y-123100000D03*
X70937500Y-123100000D03*
%TD*%
D12*
%TO.C,GPIO16*%
X146426000Y-130600000D03*
D13*
X143886000Y-130600000D03*
%TD*%
D11*
%TO.C,R55*%
X56225000Y-120600000D03*
X53300000Y-120600000D03*
%TD*%
D10*
%TO.C,D38*%
X75700000Y-107900000D03*
X78500000Y-107900000D03*
%TD*%
%TO.C,D45*%
X75700000Y-128200000D03*
X78500000Y-128200000D03*
%TD*%
D14*
%TO.C,R15*%
X110450000Y-102700000D03*
X107350000Y-102700000D03*
%TD*%
D10*
%TO.C,D36*%
X75700000Y-100300000D03*
X78500000Y-100300000D03*
%TD*%
%TO.C,D41*%
X75700000Y-118100000D03*
X78500000Y-118100000D03*
%TD*%
D11*
%TO.C,R44*%
X73862500Y-125700000D03*
X70937500Y-125700000D03*
%TD*%
D12*
%TO.C,3.3V1*%
X156477500Y-122300000D03*
D13*
X153937500Y-122300000D03*
%TD*%
D10*
%TO.C,D32*%
X75700000Y-85000000D03*
X78500000Y-85000000D03*
%TD*%
D15*
%TO.C,JP20*%
X126450000Y-104950000D03*
X125150000Y-104950000D03*
X123850000Y-104950000D03*
%TD*%
D10*
%TO.C,D43*%
X75700000Y-123100000D03*
X78500000Y-123100000D03*
%TD*%
D11*
%TO.C,R31*%
X125562500Y-121800000D03*
X122637500Y-121800000D03*
%TD*%
D10*
%TO.C,D33*%
X75700000Y-90100000D03*
X78500000Y-90100000D03*
%TD*%
D15*
%TO.C,JP15*%
X102000000Y-105250000D03*
X100700000Y-105250000D03*
X99400000Y-105250000D03*
%TD*%
D14*
%TO.C,R30*%
X127060000Y-112990000D03*
X123960000Y-112990000D03*
%TD*%
D10*
%TO.C,D57*%
X58100000Y-128400000D03*
X60900000Y-128400000D03*
%TD*%
D15*
%TO.C,JP23*%
X110100000Y-115790000D03*
X108800000Y-115790000D03*
X107500000Y-115790000D03*
%TD*%
D12*
%TO.C,3.3V2*%
X149387500Y-122300000D03*
D13*
X146847500Y-122300000D03*
%TD*%
D10*
%TO.C,D37*%
X75700000Y-105300000D03*
X78500000Y-105300000D03*
%TD*%
D11*
%TO.C,R34*%
X73900000Y-95200000D03*
X70975000Y-95200000D03*
%TD*%
D10*
%TO.C,D39*%
X75700000Y-110400000D03*
X78500000Y-110400000D03*
%TD*%
D12*
%TO.C,5V2*%
X142297500Y-122300000D03*
D13*
X139757500Y-122300000D03*
%TD*%
D11*
%TO.C,R51*%
X56325000Y-108000000D03*
X53400000Y-108000000D03*
%TD*%
%TO.C,R54*%
X56262500Y-115300000D03*
X53337500Y-115300000D03*
%TD*%
%TO.C,R39*%
X73962500Y-110400000D03*
X71037500Y-110400000D03*
%TD*%
D15*
%TO.C,JP1*%
X99850000Y-93450000D03*
X98550000Y-93450000D03*
X97250000Y-93450000D03*
%TD*%
D16*
%TO.C,*%
X54000000Y-62511000D03*
%TD*%
D14*
%TO.C,R9*%
X132100000Y-90950000D03*
X129000000Y-90950000D03*
%TD*%
D11*
%TO.C,R38*%
X73925000Y-107900000D03*
X71000000Y-107900000D03*
%TD*%
%TO.C,R58*%
X56332500Y-130980000D03*
X53407500Y-130980000D03*
%TD*%
%TO.C,R52*%
X56325000Y-110400000D03*
X53400000Y-110400000D03*
%TD*%
D14*
%TO.C,R18*%
X118600000Y-102400000D03*
X115500000Y-102400000D03*
%TD*%
D11*
%TO.C,R35*%
X73962500Y-97700000D03*
X71037500Y-97700000D03*
%TD*%
D17*
%TO.C,D5*%
X118250000Y-90730000D03*
X118250000Y-93530000D03*
%TD*%
D11*
%TO.C,R50*%
X56325000Y-103000000D03*
X53400000Y-103000000D03*
%TD*%
D14*
%TO.C,R3*%
X92100000Y-90700000D03*
X89000000Y-90700000D03*
%TD*%
D12*
%TO.C,GPIO22*%
X131654000Y-130600000D03*
D13*
X129114000Y-130600000D03*
%TD*%
D14*
%TO.C,R22*%
X126700000Y-102400000D03*
X123600000Y-102400000D03*
%TD*%
D10*
%TO.C,D40*%
X75700000Y-115600000D03*
X78500000Y-115600000D03*
%TD*%
D15*
%TO.C,JP14*%
X139950000Y-93380000D03*
X138650000Y-93380000D03*
X137350000Y-93380000D03*
%TD*%
D11*
%TO.C,R32*%
X73900000Y-85000000D03*
X70975000Y-85000000D03*
%TD*%
D14*
%TO.C,R7*%
X124100000Y-90950000D03*
X121000000Y-90950000D03*
%TD*%
D10*
%TO.C,D51*%
X58100000Y-108000000D03*
X60900000Y-108000000D03*
%TD*%
D12*
%TO.C,5V1*%
X135207500Y-122280000D03*
D13*
X132667500Y-122280000D03*
%TD*%
D15*
%TO.C,JP21*%
X134700000Y-104950000D03*
X133400000Y-104950000D03*
X132100000Y-104950000D03*
%TD*%
D14*
%TO.C,R25*%
X110350000Y-113240000D03*
X107250000Y-113240000D03*
%TD*%
D11*
%TO.C,R56*%
X56262500Y-125700000D03*
X53337500Y-125700000D03*
%TD*%
D10*
%TO.C,D34*%
X75675000Y-95200000D03*
X78475000Y-95200000D03*
%TD*%
D11*
%TO.C,R40*%
X73925000Y-115600000D03*
X71000000Y-115600000D03*
%TD*%
D17*
%TO.C,D15*%
X142250000Y-90660000D03*
X142250000Y-93460000D03*
%TD*%
D10*
%TO.C,D52*%
X58100000Y-110400000D03*
X60900000Y-110400000D03*
%TD*%
D11*
%TO.C,R45*%
X73867500Y-128200000D03*
X70942500Y-128200000D03*
%TD*%
D16*
%TO.C,*%
X97580000Y-62511000D03*
X155580000Y-62511000D03*
X155580000Y-111511000D03*
X97580000Y-111511000D03*
%TD*%
D10*
%TO.C,D50*%
X58100000Y-103000000D03*
X60900000Y-103000000D03*
%TD*%
D15*
%TO.C,JP5*%
X123850000Y-93450000D03*
X122550000Y-93450000D03*
X121250000Y-93450000D03*
%TD*%
%TO.C,JP7*%
X131850000Y-93450000D03*
X130550000Y-93450000D03*
X129250000Y-93450000D03*
%TD*%
D14*
%TO.C,R27*%
X118850000Y-112990000D03*
X115750000Y-112990000D03*
%TD*%
D17*
%TO.C,D8*%
X134250000Y-90730000D03*
X134250000Y-93530000D03*
%TD*%
%TO.C,D21*%
X128900000Y-102150000D03*
X128900000Y-104950000D03*
%TD*%
D11*
%TO.C,R33*%
X73962500Y-90100000D03*
X71037500Y-90100000D03*
%TD*%
D15*
%TO.C,JP2*%
X91850000Y-93450000D03*
X90550000Y-93450000D03*
X89250000Y-93450000D03*
%TD*%
D12*
%TO.C,GPIO28*%
X109496000Y-130780000D03*
D13*
X106956000Y-130780000D03*
%TD*%
D14*
%TO.C,R4*%
X100100000Y-90600000D03*
X97000000Y-90600000D03*
%TD*%
D15*
%TO.C,JP25*%
X118600000Y-115540000D03*
X117300000Y-115540000D03*
X116000000Y-115540000D03*
%TD*%
D10*
%TO.C,D30*%
X75700000Y-87500000D03*
X78500000Y-87500000D03*
%TD*%
D15*
%TO.C,JP13*%
X110250000Y-105250000D03*
X108950000Y-105250000D03*
X107650000Y-105250000D03*
%TD*%
D17*
%TO.C,D3*%
X102250000Y-90480000D03*
X102250000Y-93280000D03*
%TD*%
%TO.C,D2*%
X94250000Y-90480000D03*
X94250000Y-93280000D03*
%TD*%
%TO.C,D22*%
X137150000Y-102150000D03*
X137150000Y-104950000D03*
%TD*%
D15*
%TO.C,JP16*%
X118450000Y-104950000D03*
X117150000Y-104950000D03*
X115850000Y-104950000D03*
%TD*%
D10*
%TO.C,D54*%
X58100000Y-115300000D03*
X60900000Y-115300000D03*
%TD*%
D12*
%TO.C,GPIO29*%
X102040000Y-123930000D03*
D13*
X99500000Y-123930000D03*
X96960000Y-123930000D03*
%TD*%
D10*
%TO.C,D35*%
X75700000Y-97700000D03*
X78500000Y-97700000D03*
%TD*%
%TO.C,D48*%
X58062500Y-95300000D03*
X60862500Y-95300000D03*
%TD*%
D11*
%TO.C,R42*%
X73925000Y-120600000D03*
X71000000Y-120600000D03*
%TD*%
D17*
%TO.C,D24*%
X112600000Y-112990000D03*
X112600000Y-115790000D03*
%TD*%
D11*
%TO.C,R36*%
X73962500Y-100300000D03*
X71037500Y-100300000D03*
%TD*%
D18*
%TO.C,D31*%
X125437500Y-124800000D03*
X122637500Y-124800000D03*
%TD*%
D10*
%TO.C,D47*%
X58100000Y-92700000D03*
X60900000Y-92700000D03*
%TD*%
D11*
%TO.C,R48*%
X56225000Y-95300000D03*
X53300000Y-95300000D03*
%TD*%
%TO.C,R37*%
X73900000Y-105300000D03*
X70975000Y-105300000D03*
%TD*%
D12*
%TO.C,GPIO18*%
X139040000Y-130600000D03*
D13*
X136500000Y-130600000D03*
%TD*%
D12*
%TO.C,GPIO24*%
X124268000Y-130600000D03*
D13*
X121728000Y-130600000D03*
%TD*%
D17*
%TO.C,D17*%
X120850000Y-102150000D03*
X120850000Y-104950000D03*
%TD*%
D11*
%TO.C,R49*%
X56225000Y-100400000D03*
X53300000Y-100400000D03*
%TD*%
D15*
%TO.C,JP28*%
X126850000Y-115540000D03*
X125550000Y-115540000D03*
X124250000Y-115540000D03*
%TD*%
D14*
%TO.C,R17*%
X102250000Y-102700000D03*
X99150000Y-102700000D03*
%TD*%
D17*
%TO.C,D29*%
X129300000Y-112740000D03*
X129300000Y-115540000D03*
%TD*%
%TO.C,D16*%
X104450000Y-102450000D03*
X104450000Y-105250000D03*
%TD*%
%TO.C,D14*%
X112700000Y-102450000D03*
X112700000Y-105250000D03*
%TD*%
D15*
%TO.C,JP3*%
X107850000Y-93450000D03*
X106550000Y-93450000D03*
X105250000Y-93450000D03*
%TD*%
D11*
%TO.C,R46*%
X56300000Y-90200000D03*
X53375000Y-90200000D03*
%TD*%
D10*
%TO.C,D56*%
X58100000Y-125700000D03*
X60900000Y-125700000D03*
%TD*%
D11*
%TO.C,R41*%
X73925000Y-118100000D03*
X71000000Y-118100000D03*
%TD*%
D14*
%TO.C,R16*%
X140100000Y-90880000D03*
X137000000Y-90880000D03*
%TD*%
D19*
%TO.C,J2*%
X63600000Y-130750000D03*
D20*
X63600000Y-128210000D03*
X63600000Y-125670000D03*
X63600000Y-123130000D03*
X63600000Y-120590000D03*
X63600000Y-118050000D03*
X63600000Y-115510000D03*
X63600000Y-112970000D03*
X63600000Y-110430000D03*
X63600000Y-107890000D03*
X63600000Y-105350000D03*
X63600000Y-102810000D03*
X63600000Y-100270000D03*
X63600000Y-97730000D03*
X63600000Y-95190000D03*
X63600000Y-92650000D03*
X63600000Y-90110000D03*
X63600000Y-87570000D03*
X63600000Y-85030000D03*
X63600000Y-82490000D03*
%TD*%
D10*
%TO.C,D46*%
X58100000Y-90200000D03*
X60900000Y-90200000D03*
%TD*%
D11*
%TO.C,R57*%
X56325000Y-128400000D03*
X53400000Y-128400000D03*
%TD*%
%TO.C,R47*%
X56300000Y-92700000D03*
X53375000Y-92700000D03*
%TD*%
D19*
%TO.C,J4*%
X81250000Y-82500000D03*
D20*
X81250000Y-85040000D03*
X81250000Y-87580000D03*
X81250000Y-90120000D03*
X81250000Y-92660000D03*
X81250000Y-95200000D03*
X81250000Y-97740000D03*
X81250000Y-100280000D03*
X81250000Y-102820000D03*
X81250000Y-105360000D03*
X81250000Y-107900000D03*
X81250000Y-110440000D03*
X81250000Y-112980000D03*
X81250000Y-115520000D03*
X81250000Y-118060000D03*
X81250000Y-120600000D03*
X81250000Y-123140000D03*
X81250000Y-125680000D03*
X81250000Y-128220000D03*
X81250000Y-130760000D03*
%TD*%
D10*
%TO.C,D53*%
X58100000Y-113000000D03*
X60900000Y-113000000D03*
%TD*%
D21*
%TO.C,U2*%
X102520000Y-84770000D03*
D22*
X102520000Y-82230000D03*
X105060000Y-84770000D03*
X105060000Y-82230000D03*
X107600000Y-84770000D03*
X107600000Y-82230000D03*
X110140000Y-84770000D03*
X110140000Y-82230000D03*
X112680000Y-84770000D03*
X112680000Y-82230000D03*
X115220000Y-84770000D03*
X115220000Y-82230000D03*
X117760000Y-84770000D03*
X117760000Y-82230000D03*
X120300000Y-84770000D03*
X120300000Y-82230000D03*
X122840000Y-84770000D03*
X122840000Y-82230000D03*
X125380000Y-84770000D03*
X125380000Y-82230000D03*
X127920000Y-84770000D03*
X127920000Y-82230000D03*
X130460000Y-84770000D03*
X130460000Y-82230000D03*
X133000000Y-84770000D03*
X133000000Y-82230000D03*
X135540000Y-84770000D03*
X135540000Y-82230000D03*
X138080000Y-84770000D03*
X138080000Y-82230000D03*
X140620000Y-84770000D03*
X140620000Y-82230000D03*
X143160000Y-84770000D03*
X143160000Y-82230000D03*
X145700000Y-84770000D03*
X145700000Y-82230000D03*
X148240000Y-84770000D03*
X148240000Y-82230000D03*
X150780000Y-84770000D03*
X150780000Y-82230000D03*
X156880000Y-90893000D03*
X156880000Y-88353000D03*
X154340000Y-90893000D03*
X154340000Y-88353000D03*
D16*
X97650000Y-83500000D03*
X155650000Y-83500000D03*
X155650000Y-132500000D03*
X97650000Y-132500000D03*
%TD*%
D12*
%TO.C,GPIO26*%
X116882000Y-130680000D03*
D13*
X114342000Y-130680000D03*
%TD*%
D15*
%TO.C,JP4*%
X115850000Y-93450000D03*
X114550000Y-93450000D03*
X113250000Y-93450000D03*
%TD*%
D10*
%TO.C,D44*%
X75700000Y-125700000D03*
X78500000Y-125700000D03*
%TD*%
%TO.C,D58*%
X58100000Y-131000000D03*
X60900000Y-131000000D03*
%TD*%
D17*
%TO.C,D26*%
X121050000Y-112740000D03*
X121050000Y-115540000D03*
%TD*%
D10*
%TO.C,D55*%
X58062500Y-120600000D03*
X60862500Y-120600000D03*
%TD*%
D17*
%TO.C,D4*%
X110100000Y-90480000D03*
X110100000Y-93280000D03*
%TD*%
D19*
%TO.C,J1_Rele1*%
X102450000Y-63770000D03*
D20*
X102450000Y-61230000D03*
X104990000Y-63770000D03*
X104990000Y-61230000D03*
X107530000Y-63770000D03*
X107530000Y-61230000D03*
X110070000Y-63770000D03*
X110070000Y-61230000D03*
X112610000Y-63770000D03*
X112610000Y-61230000D03*
X115150000Y-63770000D03*
X115150000Y-61230000D03*
X117690000Y-63770000D03*
X117690000Y-61230000D03*
X120230000Y-63770000D03*
X120230000Y-61230000D03*
X122770000Y-63770000D03*
X122770000Y-61230000D03*
X125310000Y-63770000D03*
X125310000Y-61230000D03*
X127850000Y-63770000D03*
X127850000Y-61230000D03*
X130390000Y-63770000D03*
X130390000Y-61230000D03*
X132930000Y-63770000D03*
X132930000Y-61230000D03*
X135470000Y-63770000D03*
X135470000Y-61230000D03*
X138010000Y-63770000D03*
X138010000Y-61230000D03*
X140550000Y-63770000D03*
X140550000Y-61230000D03*
X143090000Y-63770000D03*
X143090000Y-61230000D03*
X145630000Y-63770000D03*
X145630000Y-61230000D03*
X148170000Y-63770000D03*
X148170000Y-61230000D03*
X150710000Y-63770000D03*
X150710000Y-61230000D03*
%TD*%
D14*
%TO.C,R5*%
X108100000Y-90700000D03*
X105000000Y-90700000D03*
%TD*%
D17*
%TO.C,D6*%
X126222500Y-90730000D03*
X126222500Y-93530000D03*
%TD*%
D14*
%TO.C,R6*%
X116100000Y-90950000D03*
X113000000Y-90950000D03*
%TD*%
D11*
%TO.C,R2*%
X73862500Y-87500000D03*
X70937500Y-87500000D03*
%TD*%
D14*
%TO.C,R23*%
X134950000Y-102400000D03*
X131850000Y-102400000D03*
%TD*%
D10*
%TO.C,D49*%
X58062500Y-100400000D03*
X60862500Y-100400000D03*
%TD*%
M02*
