%TF.GenerationSoftware,KiCad,Pcbnew,7.0.7*%
%TF.CreationDate,2024-08-30T11:48:46-05:00*%
%TF.ProjectId,Module_RPI,4d6f6475-6c65-45f5-9250-492e6b696361,rev?*%
%TF.SameCoordinates,Original*%
%TF.FileFunction,Legend,Bot*%
%TF.FilePolarity,Positive*%
%FSLAX46Y46*%
G04 Gerber Fmt 4.6, Leading zero omitted, Abs format (unit mm)*
G04 Created by KiCad (PCBNEW 7.0.7) date 2024-08-30 11:48:46*
%MOMM*%
%LPD*%
G01*
G04 APERTURE LIST*
%ADD10C,0.150000*%
%ADD11C,0.120000*%
G04 APERTURE END LIST*
D10*
X150508458Y-135818771D02*
X150508458Y-135218771D01*
X150508458Y-135218771D02*
X150365601Y-135218771D01*
X150365601Y-135218771D02*
X150279887Y-135247342D01*
X150279887Y-135247342D02*
X150222744Y-135304485D01*
X150222744Y-135304485D02*
X150194173Y-135361628D01*
X150194173Y-135361628D02*
X150165601Y-135475914D01*
X150165601Y-135475914D02*
X150165601Y-135561628D01*
X150165601Y-135561628D02*
X150194173Y-135675914D01*
X150194173Y-135675914D02*
X150222744Y-135733057D01*
X150222744Y-135733057D02*
X150279887Y-135790200D01*
X150279887Y-135790200D02*
X150365601Y-135818771D01*
X150365601Y-135818771D02*
X150508458Y-135818771D01*
X149908458Y-135818771D02*
X149908458Y-135418771D01*
X149908458Y-135218771D02*
X149937030Y-135247342D01*
X149937030Y-135247342D02*
X149908458Y-135275914D01*
X149908458Y-135275914D02*
X149879887Y-135247342D01*
X149879887Y-135247342D02*
X149908458Y-135218771D01*
X149908458Y-135218771D02*
X149908458Y-135275914D01*
X149651316Y-135790200D02*
X149594173Y-135818771D01*
X149594173Y-135818771D02*
X149479887Y-135818771D01*
X149479887Y-135818771D02*
X149422744Y-135790200D01*
X149422744Y-135790200D02*
X149394173Y-135733057D01*
X149394173Y-135733057D02*
X149394173Y-135704485D01*
X149394173Y-135704485D02*
X149422744Y-135647342D01*
X149422744Y-135647342D02*
X149479887Y-135618771D01*
X149479887Y-135618771D02*
X149565602Y-135618771D01*
X149565602Y-135618771D02*
X149622744Y-135590200D01*
X149622744Y-135590200D02*
X149651316Y-135533057D01*
X149651316Y-135533057D02*
X149651316Y-135504485D01*
X149651316Y-135504485D02*
X149622744Y-135447342D01*
X149622744Y-135447342D02*
X149565602Y-135418771D01*
X149565602Y-135418771D02*
X149479887Y-135418771D01*
X149479887Y-135418771D02*
X149422744Y-135447342D01*
X148908459Y-135790200D02*
X148965602Y-135818771D01*
X148965602Y-135818771D02*
X149079888Y-135818771D01*
X149079888Y-135818771D02*
X149137030Y-135790200D01*
X149137030Y-135790200D02*
X149165602Y-135733057D01*
X149165602Y-135733057D02*
X149165602Y-135504485D01*
X149165602Y-135504485D02*
X149137030Y-135447342D01*
X149137030Y-135447342D02*
X149079888Y-135418771D01*
X149079888Y-135418771D02*
X148965602Y-135418771D01*
X148965602Y-135418771D02*
X148908459Y-135447342D01*
X148908459Y-135447342D02*
X148879888Y-135504485D01*
X148879888Y-135504485D02*
X148879888Y-135561628D01*
X148879888Y-135561628D02*
X149165602Y-135618771D01*
X148622744Y-135418771D02*
X148622744Y-135818771D01*
X148622744Y-135475914D02*
X148594173Y-135447342D01*
X148594173Y-135447342D02*
X148537030Y-135418771D01*
X148537030Y-135418771D02*
X148451316Y-135418771D01*
X148451316Y-135418771D02*
X148394173Y-135447342D01*
X148394173Y-135447342D02*
X148365602Y-135504485D01*
X148365602Y-135504485D02*
X148365602Y-135818771D01*
X148651316Y-135275914D02*
X148622744Y-135247342D01*
X148622744Y-135247342D02*
X148565602Y-135218771D01*
X148565602Y-135218771D02*
X148451316Y-135275914D01*
X148451316Y-135275914D02*
X148394173Y-135247342D01*
X148394173Y-135247342D02*
X148365602Y-135218771D01*
X147822745Y-135818771D02*
X147822745Y-135504485D01*
X147822745Y-135504485D02*
X147851316Y-135447342D01*
X147851316Y-135447342D02*
X147908459Y-135418771D01*
X147908459Y-135418771D02*
X148022745Y-135418771D01*
X148022745Y-135418771D02*
X148079887Y-135447342D01*
X147822745Y-135790200D02*
X147879887Y-135818771D01*
X147879887Y-135818771D02*
X148022745Y-135818771D01*
X148022745Y-135818771D02*
X148079887Y-135790200D01*
X148079887Y-135790200D02*
X148108459Y-135733057D01*
X148108459Y-135733057D02*
X148108459Y-135675914D01*
X148108459Y-135675914D02*
X148079887Y-135618771D01*
X148079887Y-135618771D02*
X148022745Y-135590200D01*
X148022745Y-135590200D02*
X147879887Y-135590200D01*
X147879887Y-135590200D02*
X147822745Y-135561628D01*
X147279888Y-135818771D02*
X147279888Y-135218771D01*
X147279888Y-135790200D02*
X147337030Y-135818771D01*
X147337030Y-135818771D02*
X147451316Y-135818771D01*
X147451316Y-135818771D02*
X147508459Y-135790200D01*
X147508459Y-135790200D02*
X147537030Y-135761628D01*
X147537030Y-135761628D02*
X147565602Y-135704485D01*
X147565602Y-135704485D02*
X147565602Y-135533057D01*
X147565602Y-135533057D02*
X147537030Y-135475914D01*
X147537030Y-135475914D02*
X147508459Y-135447342D01*
X147508459Y-135447342D02*
X147451316Y-135418771D01*
X147451316Y-135418771D02*
X147337030Y-135418771D01*
X147337030Y-135418771D02*
X147279888Y-135447342D01*
X146908459Y-135818771D02*
X146965602Y-135790200D01*
X146965602Y-135790200D02*
X146994173Y-135761628D01*
X146994173Y-135761628D02*
X147022745Y-135704485D01*
X147022745Y-135704485D02*
X147022745Y-135533057D01*
X147022745Y-135533057D02*
X146994173Y-135475914D01*
X146994173Y-135475914D02*
X146965602Y-135447342D01*
X146965602Y-135447342D02*
X146908459Y-135418771D01*
X146908459Y-135418771D02*
X146822745Y-135418771D01*
X146822745Y-135418771D02*
X146765602Y-135447342D01*
X146765602Y-135447342D02*
X146737031Y-135475914D01*
X146737031Y-135475914D02*
X146708459Y-135533057D01*
X146708459Y-135533057D02*
X146708459Y-135704485D01*
X146708459Y-135704485D02*
X146737031Y-135761628D01*
X146737031Y-135761628D02*
X146765602Y-135790200D01*
X146765602Y-135790200D02*
X146822745Y-135818771D01*
X146822745Y-135818771D02*
X146908459Y-135818771D01*
X145994173Y-135418771D02*
X145994173Y-136018771D01*
X145994173Y-135447342D02*
X145937031Y-135418771D01*
X145937031Y-135418771D02*
X145822745Y-135418771D01*
X145822745Y-135418771D02*
X145765602Y-135447342D01*
X145765602Y-135447342D02*
X145737031Y-135475914D01*
X145737031Y-135475914D02*
X145708459Y-135533057D01*
X145708459Y-135533057D02*
X145708459Y-135704485D01*
X145708459Y-135704485D02*
X145737031Y-135761628D01*
X145737031Y-135761628D02*
X145765602Y-135790200D01*
X145765602Y-135790200D02*
X145822745Y-135818771D01*
X145822745Y-135818771D02*
X145937031Y-135818771D01*
X145937031Y-135818771D02*
X145994173Y-135790200D01*
X145365602Y-135818771D02*
X145422745Y-135790200D01*
X145422745Y-135790200D02*
X145451316Y-135761628D01*
X145451316Y-135761628D02*
X145479888Y-135704485D01*
X145479888Y-135704485D02*
X145479888Y-135533057D01*
X145479888Y-135533057D02*
X145451316Y-135475914D01*
X145451316Y-135475914D02*
X145422745Y-135447342D01*
X145422745Y-135447342D02*
X145365602Y-135418771D01*
X145365602Y-135418771D02*
X145279888Y-135418771D01*
X145279888Y-135418771D02*
X145222745Y-135447342D01*
X145222745Y-135447342D02*
X145194174Y-135475914D01*
X145194174Y-135475914D02*
X145165602Y-135533057D01*
X145165602Y-135533057D02*
X145165602Y-135704485D01*
X145165602Y-135704485D02*
X145194174Y-135761628D01*
X145194174Y-135761628D02*
X145222745Y-135790200D01*
X145222745Y-135790200D02*
X145279888Y-135818771D01*
X145279888Y-135818771D02*
X145365602Y-135818771D01*
X144908459Y-135818771D02*
X144908459Y-135418771D01*
X144908459Y-135533057D02*
X144879888Y-135475914D01*
X144879888Y-135475914D02*
X144851317Y-135447342D01*
X144851317Y-135447342D02*
X144794174Y-135418771D01*
X144794174Y-135418771D02*
X144737031Y-135418771D01*
X144079887Y-135818771D02*
X144079887Y-135218771D01*
X144079887Y-135218771D02*
X143937030Y-135218771D01*
X143937030Y-135218771D02*
X143851316Y-135247342D01*
X143851316Y-135247342D02*
X143794173Y-135304485D01*
X143794173Y-135304485D02*
X143765602Y-135361628D01*
X143765602Y-135361628D02*
X143737030Y-135475914D01*
X143737030Y-135475914D02*
X143737030Y-135561628D01*
X143737030Y-135561628D02*
X143765602Y-135675914D01*
X143765602Y-135675914D02*
X143794173Y-135733057D01*
X143794173Y-135733057D02*
X143851316Y-135790200D01*
X143851316Y-135790200D02*
X143937030Y-135818771D01*
X143937030Y-135818771D02*
X144079887Y-135818771D01*
X143222745Y-135818771D02*
X143222745Y-135504485D01*
X143222745Y-135504485D02*
X143251316Y-135447342D01*
X143251316Y-135447342D02*
X143308459Y-135418771D01*
X143308459Y-135418771D02*
X143422745Y-135418771D01*
X143422745Y-135418771D02*
X143479887Y-135447342D01*
X143222745Y-135790200D02*
X143279887Y-135818771D01*
X143279887Y-135818771D02*
X143422745Y-135818771D01*
X143422745Y-135818771D02*
X143479887Y-135790200D01*
X143479887Y-135790200D02*
X143508459Y-135733057D01*
X143508459Y-135733057D02*
X143508459Y-135675914D01*
X143508459Y-135675914D02*
X143479887Y-135618771D01*
X143479887Y-135618771D02*
X143422745Y-135590200D01*
X143422745Y-135590200D02*
X143279887Y-135590200D01*
X143279887Y-135590200D02*
X143222745Y-135561628D01*
X142937030Y-135418771D02*
X142937030Y-135818771D01*
X142937030Y-135475914D02*
X142908459Y-135447342D01*
X142908459Y-135447342D02*
X142851316Y-135418771D01*
X142851316Y-135418771D02*
X142765602Y-135418771D01*
X142765602Y-135418771D02*
X142708459Y-135447342D01*
X142708459Y-135447342D02*
X142679888Y-135504485D01*
X142679888Y-135504485D02*
X142679888Y-135818771D01*
X142394173Y-135818771D02*
X142394173Y-135418771D01*
X142394173Y-135218771D02*
X142422745Y-135247342D01*
X142422745Y-135247342D02*
X142394173Y-135275914D01*
X142394173Y-135275914D02*
X142365602Y-135247342D01*
X142365602Y-135247342D02*
X142394173Y-135218771D01*
X142394173Y-135218771D02*
X142394173Y-135275914D01*
X141879888Y-135790200D02*
X141937031Y-135818771D01*
X141937031Y-135818771D02*
X142051317Y-135818771D01*
X142051317Y-135818771D02*
X142108459Y-135790200D01*
X142108459Y-135790200D02*
X142137031Y-135733057D01*
X142137031Y-135733057D02*
X142137031Y-135504485D01*
X142137031Y-135504485D02*
X142108459Y-135447342D01*
X142108459Y-135447342D02*
X142051317Y-135418771D01*
X142051317Y-135418771D02*
X141937031Y-135418771D01*
X141937031Y-135418771D02*
X141879888Y-135447342D01*
X141879888Y-135447342D02*
X141851317Y-135504485D01*
X141851317Y-135504485D02*
X141851317Y-135561628D01*
X141851317Y-135561628D02*
X142137031Y-135618771D01*
X141508459Y-135818771D02*
X141565602Y-135790200D01*
X141565602Y-135790200D02*
X141594173Y-135733057D01*
X141594173Y-135733057D02*
X141594173Y-135218771D01*
X141279887Y-135761628D02*
X141251316Y-135790200D01*
X141251316Y-135790200D02*
X141279887Y-135818771D01*
X141279887Y-135818771D02*
X141308459Y-135790200D01*
X141308459Y-135790200D02*
X141279887Y-135761628D01*
X141279887Y-135761628D02*
X141279887Y-135818771D01*
X140679888Y-135247342D02*
X140737031Y-135218771D01*
X140737031Y-135218771D02*
X140822745Y-135218771D01*
X140822745Y-135218771D02*
X140908459Y-135247342D01*
X140908459Y-135247342D02*
X140965602Y-135304485D01*
X140965602Y-135304485D02*
X140994173Y-135361628D01*
X140994173Y-135361628D02*
X141022745Y-135475914D01*
X141022745Y-135475914D02*
X141022745Y-135561628D01*
X141022745Y-135561628D02*
X140994173Y-135675914D01*
X140994173Y-135675914D02*
X140965602Y-135733057D01*
X140965602Y-135733057D02*
X140908459Y-135790200D01*
X140908459Y-135790200D02*
X140822745Y-135818771D01*
X140822745Y-135818771D02*
X140765602Y-135818771D01*
X140765602Y-135818771D02*
X140679888Y-135790200D01*
X140679888Y-135790200D02*
X140651316Y-135761628D01*
X140651316Y-135761628D02*
X140651316Y-135561628D01*
X140651316Y-135561628D02*
X140765602Y-135561628D01*
X139937030Y-135418771D02*
X139937030Y-136018771D01*
X139937030Y-135447342D02*
X139879888Y-135418771D01*
X139879888Y-135418771D02*
X139765602Y-135418771D01*
X139765602Y-135418771D02*
X139708459Y-135447342D01*
X139708459Y-135447342D02*
X139679888Y-135475914D01*
X139679888Y-135475914D02*
X139651316Y-135533057D01*
X139651316Y-135533057D02*
X139651316Y-135704485D01*
X139651316Y-135704485D02*
X139679888Y-135761628D01*
X139679888Y-135761628D02*
X139708459Y-135790200D01*
X139708459Y-135790200D02*
X139765602Y-135818771D01*
X139765602Y-135818771D02*
X139879888Y-135818771D01*
X139879888Y-135818771D02*
X139937030Y-135790200D01*
X139137031Y-135818771D02*
X139137031Y-135504485D01*
X139137031Y-135504485D02*
X139165602Y-135447342D01*
X139165602Y-135447342D02*
X139222745Y-135418771D01*
X139222745Y-135418771D02*
X139337031Y-135418771D01*
X139337031Y-135418771D02*
X139394173Y-135447342D01*
X139137031Y-135790200D02*
X139194173Y-135818771D01*
X139194173Y-135818771D02*
X139337031Y-135818771D01*
X139337031Y-135818771D02*
X139394173Y-135790200D01*
X139394173Y-135790200D02*
X139422745Y-135733057D01*
X139422745Y-135733057D02*
X139422745Y-135675914D01*
X139422745Y-135675914D02*
X139394173Y-135618771D01*
X139394173Y-135618771D02*
X139337031Y-135590200D01*
X139337031Y-135590200D02*
X139194173Y-135590200D01*
X139194173Y-135590200D02*
X139137031Y-135561628D01*
X138851316Y-135818771D02*
X138851316Y-135418771D01*
X138851316Y-135533057D02*
X138822745Y-135475914D01*
X138822745Y-135475914D02*
X138794174Y-135447342D01*
X138794174Y-135447342D02*
X138737031Y-135418771D01*
X138737031Y-135418771D02*
X138679888Y-135418771D01*
X138222745Y-135818771D02*
X138222745Y-135504485D01*
X138222745Y-135504485D02*
X138251316Y-135447342D01*
X138251316Y-135447342D02*
X138308459Y-135418771D01*
X138308459Y-135418771D02*
X138422745Y-135418771D01*
X138422745Y-135418771D02*
X138479887Y-135447342D01*
X138222745Y-135790200D02*
X138279887Y-135818771D01*
X138279887Y-135818771D02*
X138422745Y-135818771D01*
X138422745Y-135818771D02*
X138479887Y-135790200D01*
X138479887Y-135790200D02*
X138508459Y-135733057D01*
X138508459Y-135733057D02*
X138508459Y-135675914D01*
X138508459Y-135675914D02*
X138479887Y-135618771D01*
X138479887Y-135618771D02*
X138422745Y-135590200D01*
X138422745Y-135590200D02*
X138279887Y-135590200D01*
X138279887Y-135590200D02*
X138222745Y-135561628D01*
X137137030Y-135761628D02*
X137165602Y-135790200D01*
X137165602Y-135790200D02*
X137251316Y-135818771D01*
X137251316Y-135818771D02*
X137308459Y-135818771D01*
X137308459Y-135818771D02*
X137394173Y-135790200D01*
X137394173Y-135790200D02*
X137451316Y-135733057D01*
X137451316Y-135733057D02*
X137479887Y-135675914D01*
X137479887Y-135675914D02*
X137508459Y-135561628D01*
X137508459Y-135561628D02*
X137508459Y-135475914D01*
X137508459Y-135475914D02*
X137479887Y-135361628D01*
X137479887Y-135361628D02*
X137451316Y-135304485D01*
X137451316Y-135304485D02*
X137394173Y-135247342D01*
X137394173Y-135247342D02*
X137308459Y-135218771D01*
X137308459Y-135218771D02*
X137251316Y-135218771D01*
X137251316Y-135218771D02*
X137165602Y-135247342D01*
X137165602Y-135247342D02*
X137137030Y-135275914D01*
X136879887Y-135818771D02*
X136879887Y-135218771D01*
X136622745Y-135275914D02*
X136594173Y-135247342D01*
X136594173Y-135247342D02*
X136537031Y-135218771D01*
X136537031Y-135218771D02*
X136394173Y-135218771D01*
X136394173Y-135218771D02*
X136337031Y-135247342D01*
X136337031Y-135247342D02*
X136308459Y-135275914D01*
X136308459Y-135275914D02*
X136279888Y-135333057D01*
X136279888Y-135333057D02*
X136279888Y-135390200D01*
X136279888Y-135390200D02*
X136308459Y-135475914D01*
X136308459Y-135475914D02*
X136651316Y-135818771D01*
X136651316Y-135818771D02*
X136279888Y-135818771D01*
X135765602Y-135418771D02*
X135765602Y-135818771D01*
X135908459Y-135190200D02*
X136051316Y-135618771D01*
X136051316Y-135618771D02*
X135679887Y-135618771D01*
X134994172Y-135590200D02*
X134537030Y-135590200D01*
X133822744Y-135275914D02*
X133794172Y-135247342D01*
X133794172Y-135247342D02*
X133737030Y-135218771D01*
X133737030Y-135218771D02*
X133594172Y-135218771D01*
X133594172Y-135218771D02*
X133537030Y-135247342D01*
X133537030Y-135247342D02*
X133508458Y-135275914D01*
X133508458Y-135275914D02*
X133479887Y-135333057D01*
X133479887Y-135333057D02*
X133479887Y-135390200D01*
X133479887Y-135390200D02*
X133508458Y-135475914D01*
X133508458Y-135475914D02*
X133851315Y-135818771D01*
X133851315Y-135818771D02*
X133479887Y-135818771D01*
X133108458Y-135218771D02*
X133051315Y-135218771D01*
X133051315Y-135218771D02*
X132994172Y-135247342D01*
X132994172Y-135247342D02*
X132965601Y-135275914D01*
X132965601Y-135275914D02*
X132937029Y-135333057D01*
X132937029Y-135333057D02*
X132908458Y-135447342D01*
X132908458Y-135447342D02*
X132908458Y-135590200D01*
X132908458Y-135590200D02*
X132937029Y-135704485D01*
X132937029Y-135704485D02*
X132965601Y-135761628D01*
X132965601Y-135761628D02*
X132994172Y-135790200D01*
X132994172Y-135790200D02*
X133051315Y-135818771D01*
X133051315Y-135818771D02*
X133108458Y-135818771D01*
X133108458Y-135818771D02*
X133165601Y-135790200D01*
X133165601Y-135790200D02*
X133194172Y-135761628D01*
X133194172Y-135761628D02*
X133222743Y-135704485D01*
X133222743Y-135704485D02*
X133251315Y-135590200D01*
X133251315Y-135590200D02*
X133251315Y-135447342D01*
X133251315Y-135447342D02*
X133222743Y-135333057D01*
X133222743Y-135333057D02*
X133194172Y-135275914D01*
X133194172Y-135275914D02*
X133165601Y-135247342D01*
X133165601Y-135247342D02*
X133108458Y-135218771D01*
X132679886Y-135275914D02*
X132651314Y-135247342D01*
X132651314Y-135247342D02*
X132594172Y-135218771D01*
X132594172Y-135218771D02*
X132451314Y-135218771D01*
X132451314Y-135218771D02*
X132394172Y-135247342D01*
X132394172Y-135247342D02*
X132365600Y-135275914D01*
X132365600Y-135275914D02*
X132337029Y-135333057D01*
X132337029Y-135333057D02*
X132337029Y-135390200D01*
X132337029Y-135390200D02*
X132365600Y-135475914D01*
X132365600Y-135475914D02*
X132708457Y-135818771D01*
X132708457Y-135818771D02*
X132337029Y-135818771D01*
X131822743Y-135418771D02*
X131822743Y-135818771D01*
X131965600Y-135190200D02*
X132108457Y-135618771D01*
X132108457Y-135618771D02*
X131737028Y-135618771D01*
X149941792Y-134619819D02*
X150275125Y-134143628D01*
X150513220Y-134619819D02*
X150513220Y-133619819D01*
X150513220Y-133619819D02*
X150132268Y-133619819D01*
X150132268Y-133619819D02*
X150037030Y-133667438D01*
X150037030Y-133667438D02*
X149989411Y-133715057D01*
X149989411Y-133715057D02*
X149941792Y-133810295D01*
X149941792Y-133810295D02*
X149941792Y-133953152D01*
X149941792Y-133953152D02*
X149989411Y-134048390D01*
X149989411Y-134048390D02*
X150037030Y-134096009D01*
X150037030Y-134096009D02*
X150132268Y-134143628D01*
X150132268Y-134143628D02*
X150513220Y-134143628D01*
X149132268Y-134572200D02*
X149227506Y-134619819D01*
X149227506Y-134619819D02*
X149417982Y-134619819D01*
X149417982Y-134619819D02*
X149513220Y-134572200D01*
X149513220Y-134572200D02*
X149560839Y-134476961D01*
X149560839Y-134476961D02*
X149560839Y-134096009D01*
X149560839Y-134096009D02*
X149513220Y-134000771D01*
X149513220Y-134000771D02*
X149417982Y-133953152D01*
X149417982Y-133953152D02*
X149227506Y-133953152D01*
X149227506Y-133953152D02*
X149132268Y-134000771D01*
X149132268Y-134000771D02*
X149084649Y-134096009D01*
X149084649Y-134096009D02*
X149084649Y-134191247D01*
X149084649Y-134191247D02*
X149560839Y-134286485D01*
X148751315Y-133953152D02*
X148513220Y-134619819D01*
X148513220Y-134619819D02*
X148275125Y-133953152D01*
X146608458Y-134619819D02*
X147179886Y-134619819D01*
X146894172Y-134619819D02*
X146894172Y-133619819D01*
X146894172Y-133619819D02*
X146989410Y-133762676D01*
X146989410Y-133762676D02*
X147084648Y-133857914D01*
X147084648Y-133857914D02*
X147179886Y-133905533D01*
X146179886Y-134524580D02*
X146132267Y-134572200D01*
X146132267Y-134572200D02*
X146179886Y-134619819D01*
X146179886Y-134619819D02*
X146227505Y-134572200D01*
X146227505Y-134572200D02*
X146179886Y-134524580D01*
X146179886Y-134524580D02*
X146179886Y-134619819D01*
X145513220Y-133619819D02*
X145417982Y-133619819D01*
X145417982Y-133619819D02*
X145322744Y-133667438D01*
X145322744Y-133667438D02*
X145275125Y-133715057D01*
X145275125Y-133715057D02*
X145227506Y-133810295D01*
X145227506Y-133810295D02*
X145179887Y-134000771D01*
X145179887Y-134000771D02*
X145179887Y-134238866D01*
X145179887Y-134238866D02*
X145227506Y-134429342D01*
X145227506Y-134429342D02*
X145275125Y-134524580D01*
X145275125Y-134524580D02*
X145322744Y-134572200D01*
X145322744Y-134572200D02*
X145417982Y-134619819D01*
X145417982Y-134619819D02*
X145513220Y-134619819D01*
X145513220Y-134619819D02*
X145608458Y-134572200D01*
X145608458Y-134572200D02*
X145656077Y-134524580D01*
X145656077Y-134524580D02*
X145703696Y-134429342D01*
X145703696Y-134429342D02*
X145751315Y-134238866D01*
X145751315Y-134238866D02*
X145751315Y-134000771D01*
X145751315Y-134000771D02*
X145703696Y-133810295D01*
X145703696Y-133810295D02*
X145656077Y-133715057D01*
X145656077Y-133715057D02*
X145608458Y-133667438D01*
X145608458Y-133667438D02*
X145513220Y-133619819D01*
X73683333Y-70754819D02*
X73683333Y-71469104D01*
X73683333Y-71469104D02*
X73730952Y-71611961D01*
X73730952Y-71611961D02*
X73826190Y-71707200D01*
X73826190Y-71707200D02*
X73969047Y-71754819D01*
X73969047Y-71754819D02*
X74064285Y-71754819D01*
X73207142Y-71754819D02*
X73207142Y-70754819D01*
X73207142Y-70754819D02*
X72826190Y-70754819D01*
X72826190Y-70754819D02*
X72730952Y-70802438D01*
X72730952Y-70802438D02*
X72683333Y-70850057D01*
X72683333Y-70850057D02*
X72635714Y-70945295D01*
X72635714Y-70945295D02*
X72635714Y-71088152D01*
X72635714Y-71088152D02*
X72683333Y-71183390D01*
X72683333Y-71183390D02*
X72730952Y-71231009D01*
X72730952Y-71231009D02*
X72826190Y-71278628D01*
X72826190Y-71278628D02*
X73207142Y-71278628D01*
X71778571Y-70754819D02*
X71969047Y-70754819D01*
X71969047Y-70754819D02*
X72064285Y-70802438D01*
X72064285Y-70802438D02*
X72111904Y-70850057D01*
X72111904Y-70850057D02*
X72207142Y-70992914D01*
X72207142Y-70992914D02*
X72254761Y-71183390D01*
X72254761Y-71183390D02*
X72254761Y-71564342D01*
X72254761Y-71564342D02*
X72207142Y-71659580D01*
X72207142Y-71659580D02*
X72159523Y-71707200D01*
X72159523Y-71707200D02*
X72064285Y-71754819D01*
X72064285Y-71754819D02*
X71873809Y-71754819D01*
X71873809Y-71754819D02*
X71778571Y-71707200D01*
X71778571Y-71707200D02*
X71730952Y-71659580D01*
X71730952Y-71659580D02*
X71683333Y-71564342D01*
X71683333Y-71564342D02*
X71683333Y-71326247D01*
X71683333Y-71326247D02*
X71730952Y-71231009D01*
X71730952Y-71231009D02*
X71778571Y-71183390D01*
X71778571Y-71183390D02*
X71873809Y-71135771D01*
X71873809Y-71135771D02*
X72064285Y-71135771D01*
X72064285Y-71135771D02*
X72159523Y-71183390D01*
X72159523Y-71183390D02*
X72207142Y-71231009D01*
X72207142Y-71231009D02*
X72254761Y-71326247D01*
X122686587Y-70804819D02*
X122686587Y-71519104D01*
X122686587Y-71519104D02*
X122734206Y-71661961D01*
X122734206Y-71661961D02*
X122829444Y-71757200D01*
X122829444Y-71757200D02*
X122972301Y-71804819D01*
X122972301Y-71804819D02*
X123067539Y-71804819D01*
X122210396Y-71804819D02*
X122210396Y-70804819D01*
X122210396Y-70804819D02*
X121829444Y-70804819D01*
X121829444Y-70804819D02*
X121734206Y-70852438D01*
X121734206Y-70852438D02*
X121686587Y-70900057D01*
X121686587Y-70900057D02*
X121638968Y-70995295D01*
X121638968Y-70995295D02*
X121638968Y-71138152D01*
X121638968Y-71138152D02*
X121686587Y-71233390D01*
X121686587Y-71233390D02*
X121734206Y-71281009D01*
X121734206Y-71281009D02*
X121829444Y-71328628D01*
X121829444Y-71328628D02*
X122210396Y-71328628D01*
X120686587Y-71804819D02*
X121258015Y-71804819D01*
X120972301Y-71804819D02*
X120972301Y-70804819D01*
X120972301Y-70804819D02*
X121067539Y-70947676D01*
X121067539Y-70947676D02*
X121162777Y-71042914D01*
X121162777Y-71042914D02*
X121258015Y-71090533D01*
X120353253Y-70804819D02*
X119686587Y-70804819D01*
X119686587Y-70804819D02*
X120115158Y-71804819D01*
X147042857Y-77954819D02*
X147376190Y-77478628D01*
X147614285Y-77954819D02*
X147614285Y-76954819D01*
X147614285Y-76954819D02*
X147233333Y-76954819D01*
X147233333Y-76954819D02*
X147138095Y-77002438D01*
X147138095Y-77002438D02*
X147090476Y-77050057D01*
X147090476Y-77050057D02*
X147042857Y-77145295D01*
X147042857Y-77145295D02*
X147042857Y-77288152D01*
X147042857Y-77288152D02*
X147090476Y-77383390D01*
X147090476Y-77383390D02*
X147138095Y-77431009D01*
X147138095Y-77431009D02*
X147233333Y-77478628D01*
X147233333Y-77478628D02*
X147614285Y-77478628D01*
X146661904Y-77050057D02*
X146614285Y-77002438D01*
X146614285Y-77002438D02*
X146519047Y-76954819D01*
X146519047Y-76954819D02*
X146280952Y-76954819D01*
X146280952Y-76954819D02*
X146185714Y-77002438D01*
X146185714Y-77002438D02*
X146138095Y-77050057D01*
X146138095Y-77050057D02*
X146090476Y-77145295D01*
X146090476Y-77145295D02*
X146090476Y-77240533D01*
X146090476Y-77240533D02*
X146138095Y-77383390D01*
X146138095Y-77383390D02*
X146709523Y-77954819D01*
X146709523Y-77954819D02*
X146090476Y-77954819D01*
X145519047Y-77383390D02*
X145614285Y-77335771D01*
X145614285Y-77335771D02*
X145661904Y-77288152D01*
X145661904Y-77288152D02*
X145709523Y-77192914D01*
X145709523Y-77192914D02*
X145709523Y-77145295D01*
X145709523Y-77145295D02*
X145661904Y-77050057D01*
X145661904Y-77050057D02*
X145614285Y-77002438D01*
X145614285Y-77002438D02*
X145519047Y-76954819D01*
X145519047Y-76954819D02*
X145328571Y-76954819D01*
X145328571Y-76954819D02*
X145233333Y-77002438D01*
X145233333Y-77002438D02*
X145185714Y-77050057D01*
X145185714Y-77050057D02*
X145138095Y-77145295D01*
X145138095Y-77145295D02*
X145138095Y-77192914D01*
X145138095Y-77192914D02*
X145185714Y-77288152D01*
X145185714Y-77288152D02*
X145233333Y-77335771D01*
X145233333Y-77335771D02*
X145328571Y-77383390D01*
X145328571Y-77383390D02*
X145519047Y-77383390D01*
X145519047Y-77383390D02*
X145614285Y-77431009D01*
X145614285Y-77431009D02*
X145661904Y-77478628D01*
X145661904Y-77478628D02*
X145709523Y-77573866D01*
X145709523Y-77573866D02*
X145709523Y-77764342D01*
X145709523Y-77764342D02*
X145661904Y-77859580D01*
X145661904Y-77859580D02*
X145614285Y-77907200D01*
X145614285Y-77907200D02*
X145519047Y-77954819D01*
X145519047Y-77954819D02*
X145328571Y-77954819D01*
X145328571Y-77954819D02*
X145233333Y-77907200D01*
X145233333Y-77907200D02*
X145185714Y-77859580D01*
X145185714Y-77859580D02*
X145138095Y-77764342D01*
X145138095Y-77764342D02*
X145138095Y-77573866D01*
X145138095Y-77573866D02*
X145185714Y-77478628D01*
X145185714Y-77478628D02*
X145233333Y-77431009D01*
X145233333Y-77431009D02*
X145328571Y-77383390D01*
X76942857Y-86754819D02*
X77276190Y-86278628D01*
X77514285Y-86754819D02*
X77514285Y-85754819D01*
X77514285Y-85754819D02*
X77133333Y-85754819D01*
X77133333Y-85754819D02*
X77038095Y-85802438D01*
X77038095Y-85802438D02*
X76990476Y-85850057D01*
X76990476Y-85850057D02*
X76942857Y-85945295D01*
X76942857Y-85945295D02*
X76942857Y-86088152D01*
X76942857Y-86088152D02*
X76990476Y-86183390D01*
X76990476Y-86183390D02*
X77038095Y-86231009D01*
X77038095Y-86231009D02*
X77133333Y-86278628D01*
X77133333Y-86278628D02*
X77514285Y-86278628D01*
X76561904Y-85850057D02*
X76514285Y-85802438D01*
X76514285Y-85802438D02*
X76419047Y-85754819D01*
X76419047Y-85754819D02*
X76180952Y-85754819D01*
X76180952Y-85754819D02*
X76085714Y-85802438D01*
X76085714Y-85802438D02*
X76038095Y-85850057D01*
X76038095Y-85850057D02*
X75990476Y-85945295D01*
X75990476Y-85945295D02*
X75990476Y-86040533D01*
X75990476Y-86040533D02*
X76038095Y-86183390D01*
X76038095Y-86183390D02*
X76609523Y-86754819D01*
X76609523Y-86754819D02*
X75990476Y-86754819D01*
X75038095Y-86754819D02*
X75609523Y-86754819D01*
X75323809Y-86754819D02*
X75323809Y-85754819D01*
X75323809Y-85754819D02*
X75419047Y-85897676D01*
X75419047Y-85897676D02*
X75514285Y-85992914D01*
X75514285Y-85992914D02*
X75609523Y-86040533D01*
X118914285Y-72054819D02*
X118914285Y-71054819D01*
X118914285Y-71054819D02*
X118676190Y-71054819D01*
X118676190Y-71054819D02*
X118533333Y-71102438D01*
X118533333Y-71102438D02*
X118438095Y-71197676D01*
X118438095Y-71197676D02*
X118390476Y-71292914D01*
X118390476Y-71292914D02*
X118342857Y-71483390D01*
X118342857Y-71483390D02*
X118342857Y-71626247D01*
X118342857Y-71626247D02*
X118390476Y-71816723D01*
X118390476Y-71816723D02*
X118438095Y-71911961D01*
X118438095Y-71911961D02*
X118533333Y-72007200D01*
X118533333Y-72007200D02*
X118676190Y-72054819D01*
X118676190Y-72054819D02*
X118914285Y-72054819D01*
X117390476Y-72054819D02*
X117961904Y-72054819D01*
X117676190Y-72054819D02*
X117676190Y-71054819D01*
X117676190Y-71054819D02*
X117771428Y-71197676D01*
X117771428Y-71197676D02*
X117866666Y-71292914D01*
X117866666Y-71292914D02*
X117961904Y-71340533D01*
X116819047Y-71483390D02*
X116914285Y-71435771D01*
X116914285Y-71435771D02*
X116961904Y-71388152D01*
X116961904Y-71388152D02*
X117009523Y-71292914D01*
X117009523Y-71292914D02*
X117009523Y-71245295D01*
X117009523Y-71245295D02*
X116961904Y-71150057D01*
X116961904Y-71150057D02*
X116914285Y-71102438D01*
X116914285Y-71102438D02*
X116819047Y-71054819D01*
X116819047Y-71054819D02*
X116628571Y-71054819D01*
X116628571Y-71054819D02*
X116533333Y-71102438D01*
X116533333Y-71102438D02*
X116485714Y-71150057D01*
X116485714Y-71150057D02*
X116438095Y-71245295D01*
X116438095Y-71245295D02*
X116438095Y-71292914D01*
X116438095Y-71292914D02*
X116485714Y-71388152D01*
X116485714Y-71388152D02*
X116533333Y-71435771D01*
X116533333Y-71435771D02*
X116628571Y-71483390D01*
X116628571Y-71483390D02*
X116819047Y-71483390D01*
X116819047Y-71483390D02*
X116914285Y-71531009D01*
X116914285Y-71531009D02*
X116961904Y-71578628D01*
X116961904Y-71578628D02*
X117009523Y-71673866D01*
X117009523Y-71673866D02*
X117009523Y-71864342D01*
X117009523Y-71864342D02*
X116961904Y-71959580D01*
X116961904Y-71959580D02*
X116914285Y-72007200D01*
X116914285Y-72007200D02*
X116819047Y-72054819D01*
X116819047Y-72054819D02*
X116628571Y-72054819D01*
X116628571Y-72054819D02*
X116533333Y-72007200D01*
X116533333Y-72007200D02*
X116485714Y-71959580D01*
X116485714Y-71959580D02*
X116438095Y-71864342D01*
X116438095Y-71864342D02*
X116438095Y-71673866D01*
X116438095Y-71673866D02*
X116485714Y-71578628D01*
X116485714Y-71578628D02*
X116533333Y-71531009D01*
X116533333Y-71531009D02*
X116628571Y-71483390D01*
X127114285Y-71854819D02*
X127114285Y-70854819D01*
X127114285Y-70854819D02*
X126876190Y-70854819D01*
X126876190Y-70854819D02*
X126733333Y-70902438D01*
X126733333Y-70902438D02*
X126638095Y-70997676D01*
X126638095Y-70997676D02*
X126590476Y-71092914D01*
X126590476Y-71092914D02*
X126542857Y-71283390D01*
X126542857Y-71283390D02*
X126542857Y-71426247D01*
X126542857Y-71426247D02*
X126590476Y-71616723D01*
X126590476Y-71616723D02*
X126638095Y-71711961D01*
X126638095Y-71711961D02*
X126733333Y-71807200D01*
X126733333Y-71807200D02*
X126876190Y-71854819D01*
X126876190Y-71854819D02*
X127114285Y-71854819D01*
X126161904Y-70950057D02*
X126114285Y-70902438D01*
X126114285Y-70902438D02*
X126019047Y-70854819D01*
X126019047Y-70854819D02*
X125780952Y-70854819D01*
X125780952Y-70854819D02*
X125685714Y-70902438D01*
X125685714Y-70902438D02*
X125638095Y-70950057D01*
X125638095Y-70950057D02*
X125590476Y-71045295D01*
X125590476Y-71045295D02*
X125590476Y-71140533D01*
X125590476Y-71140533D02*
X125638095Y-71283390D01*
X125638095Y-71283390D02*
X126209523Y-71854819D01*
X126209523Y-71854819D02*
X125590476Y-71854819D01*
X125257142Y-70854819D02*
X124638095Y-70854819D01*
X124638095Y-70854819D02*
X124971428Y-71235771D01*
X124971428Y-71235771D02*
X124828571Y-71235771D01*
X124828571Y-71235771D02*
X124733333Y-71283390D01*
X124733333Y-71283390D02*
X124685714Y-71331009D01*
X124685714Y-71331009D02*
X124638095Y-71426247D01*
X124638095Y-71426247D02*
X124638095Y-71664342D01*
X124638095Y-71664342D02*
X124685714Y-71759580D01*
X124685714Y-71759580D02*
X124733333Y-71807200D01*
X124733333Y-71807200D02*
X124828571Y-71854819D01*
X124828571Y-71854819D02*
X125114285Y-71854819D01*
X125114285Y-71854819D02*
X125209523Y-71807200D01*
X125209523Y-71807200D02*
X125257142Y-71759580D01*
X106809523Y-70754819D02*
X106809523Y-71469104D01*
X106809523Y-71469104D02*
X106857142Y-71611961D01*
X106857142Y-71611961D02*
X106952380Y-71707200D01*
X106952380Y-71707200D02*
X107095237Y-71754819D01*
X107095237Y-71754819D02*
X107190475Y-71754819D01*
X106333332Y-71754819D02*
X106333332Y-70754819D01*
X106333332Y-70754819D02*
X105952380Y-70754819D01*
X105952380Y-70754819D02*
X105857142Y-70802438D01*
X105857142Y-70802438D02*
X105809523Y-70850057D01*
X105809523Y-70850057D02*
X105761904Y-70945295D01*
X105761904Y-70945295D02*
X105761904Y-71088152D01*
X105761904Y-71088152D02*
X105809523Y-71183390D01*
X105809523Y-71183390D02*
X105857142Y-71231009D01*
X105857142Y-71231009D02*
X105952380Y-71278628D01*
X105952380Y-71278628D02*
X106333332Y-71278628D01*
X104809523Y-71754819D02*
X105380951Y-71754819D01*
X105095237Y-71754819D02*
X105095237Y-70754819D01*
X105095237Y-70754819D02*
X105190475Y-70897676D01*
X105190475Y-70897676D02*
X105285713Y-70992914D01*
X105285713Y-70992914D02*
X105380951Y-71040533D01*
X103857142Y-71754819D02*
X104428570Y-71754819D01*
X104142856Y-71754819D02*
X104142856Y-70754819D01*
X104142856Y-70754819D02*
X104238094Y-70897676D01*
X104238094Y-70897676D02*
X104333332Y-70992914D01*
X104333332Y-70992914D02*
X104428570Y-71040533D01*
X138669921Y-77854819D02*
X139003254Y-77378628D01*
X139241349Y-77854819D02*
X139241349Y-76854819D01*
X139241349Y-76854819D02*
X138860397Y-76854819D01*
X138860397Y-76854819D02*
X138765159Y-76902438D01*
X138765159Y-76902438D02*
X138717540Y-76950057D01*
X138717540Y-76950057D02*
X138669921Y-77045295D01*
X138669921Y-77045295D02*
X138669921Y-77188152D01*
X138669921Y-77188152D02*
X138717540Y-77283390D01*
X138717540Y-77283390D02*
X138765159Y-77331009D01*
X138765159Y-77331009D02*
X138860397Y-77378628D01*
X138860397Y-77378628D02*
X139241349Y-77378628D01*
X138288968Y-76950057D02*
X138241349Y-76902438D01*
X138241349Y-76902438D02*
X138146111Y-76854819D01*
X138146111Y-76854819D02*
X137908016Y-76854819D01*
X137908016Y-76854819D02*
X137812778Y-76902438D01*
X137812778Y-76902438D02*
X137765159Y-76950057D01*
X137765159Y-76950057D02*
X137717540Y-77045295D01*
X137717540Y-77045295D02*
X137717540Y-77140533D01*
X137717540Y-77140533D02*
X137765159Y-77283390D01*
X137765159Y-77283390D02*
X138336587Y-77854819D01*
X138336587Y-77854819D02*
X137717540Y-77854819D01*
X136860397Y-76854819D02*
X137050873Y-76854819D01*
X137050873Y-76854819D02*
X137146111Y-76902438D01*
X137146111Y-76902438D02*
X137193730Y-76950057D01*
X137193730Y-76950057D02*
X137288968Y-77092914D01*
X137288968Y-77092914D02*
X137336587Y-77283390D01*
X137336587Y-77283390D02*
X137336587Y-77664342D01*
X137336587Y-77664342D02*
X137288968Y-77759580D01*
X137288968Y-77759580D02*
X137241349Y-77807200D01*
X137241349Y-77807200D02*
X137146111Y-77854819D01*
X137146111Y-77854819D02*
X136955635Y-77854819D01*
X136955635Y-77854819D02*
X136860397Y-77807200D01*
X136860397Y-77807200D02*
X136812778Y-77759580D01*
X136812778Y-77759580D02*
X136765159Y-77664342D01*
X136765159Y-77664342D02*
X136765159Y-77426247D01*
X136765159Y-77426247D02*
X136812778Y-77331009D01*
X136812778Y-77331009D02*
X136860397Y-77283390D01*
X136860397Y-77283390D02*
X136955635Y-77235771D01*
X136955635Y-77235771D02*
X137146111Y-77235771D01*
X137146111Y-77235771D02*
X137241349Y-77283390D01*
X137241349Y-77283390D02*
X137288968Y-77331009D01*
X137288968Y-77331009D02*
X137336587Y-77426247D01*
X77414285Y-90854819D02*
X77414285Y-89854819D01*
X77414285Y-89854819D02*
X77176190Y-89854819D01*
X77176190Y-89854819D02*
X77033333Y-89902438D01*
X77033333Y-89902438D02*
X76938095Y-89997676D01*
X76938095Y-89997676D02*
X76890476Y-90092914D01*
X76890476Y-90092914D02*
X76842857Y-90283390D01*
X76842857Y-90283390D02*
X76842857Y-90426247D01*
X76842857Y-90426247D02*
X76890476Y-90616723D01*
X76890476Y-90616723D02*
X76938095Y-90711961D01*
X76938095Y-90711961D02*
X77033333Y-90807200D01*
X77033333Y-90807200D02*
X77176190Y-90854819D01*
X77176190Y-90854819D02*
X77414285Y-90854819D01*
X76461904Y-89950057D02*
X76414285Y-89902438D01*
X76414285Y-89902438D02*
X76319047Y-89854819D01*
X76319047Y-89854819D02*
X76080952Y-89854819D01*
X76080952Y-89854819D02*
X75985714Y-89902438D01*
X75985714Y-89902438D02*
X75938095Y-89950057D01*
X75938095Y-89950057D02*
X75890476Y-90045295D01*
X75890476Y-90045295D02*
X75890476Y-90140533D01*
X75890476Y-90140533D02*
X75938095Y-90283390D01*
X75938095Y-90283390D02*
X76509523Y-90854819D01*
X76509523Y-90854819D02*
X75890476Y-90854819D01*
X75271428Y-89854819D02*
X75176190Y-89854819D01*
X75176190Y-89854819D02*
X75080952Y-89902438D01*
X75080952Y-89902438D02*
X75033333Y-89950057D01*
X75033333Y-89950057D02*
X74985714Y-90045295D01*
X74985714Y-90045295D02*
X74938095Y-90235771D01*
X74938095Y-90235771D02*
X74938095Y-90473866D01*
X74938095Y-90473866D02*
X74985714Y-90664342D01*
X74985714Y-90664342D02*
X75033333Y-90759580D01*
X75033333Y-90759580D02*
X75080952Y-90807200D01*
X75080952Y-90807200D02*
X75176190Y-90854819D01*
X75176190Y-90854819D02*
X75271428Y-90854819D01*
X75271428Y-90854819D02*
X75366666Y-90807200D01*
X75366666Y-90807200D02*
X75414285Y-90759580D01*
X75414285Y-90759580D02*
X75461904Y-90664342D01*
X75461904Y-90664342D02*
X75509523Y-90473866D01*
X75509523Y-90473866D02*
X75509523Y-90235771D01*
X75509523Y-90235771D02*
X75461904Y-90045295D01*
X75461904Y-90045295D02*
X75414285Y-89950057D01*
X75414285Y-89950057D02*
X75366666Y-89902438D01*
X75366666Y-89902438D02*
X75271428Y-89854819D01*
X81733333Y-70654819D02*
X81733333Y-71369104D01*
X81733333Y-71369104D02*
X81780952Y-71511961D01*
X81780952Y-71511961D02*
X81876190Y-71607200D01*
X81876190Y-71607200D02*
X82019047Y-71654819D01*
X82019047Y-71654819D02*
X82114285Y-71654819D01*
X81257142Y-71654819D02*
X81257142Y-70654819D01*
X81257142Y-70654819D02*
X80876190Y-70654819D01*
X80876190Y-70654819D02*
X80780952Y-70702438D01*
X80780952Y-70702438D02*
X80733333Y-70750057D01*
X80733333Y-70750057D02*
X80685714Y-70845295D01*
X80685714Y-70845295D02*
X80685714Y-70988152D01*
X80685714Y-70988152D02*
X80733333Y-71083390D01*
X80733333Y-71083390D02*
X80780952Y-71131009D01*
X80780952Y-71131009D02*
X80876190Y-71178628D01*
X80876190Y-71178628D02*
X81257142Y-71178628D01*
X80114285Y-71083390D02*
X80209523Y-71035771D01*
X80209523Y-71035771D02*
X80257142Y-70988152D01*
X80257142Y-70988152D02*
X80304761Y-70892914D01*
X80304761Y-70892914D02*
X80304761Y-70845295D01*
X80304761Y-70845295D02*
X80257142Y-70750057D01*
X80257142Y-70750057D02*
X80209523Y-70702438D01*
X80209523Y-70702438D02*
X80114285Y-70654819D01*
X80114285Y-70654819D02*
X79923809Y-70654819D01*
X79923809Y-70654819D02*
X79828571Y-70702438D01*
X79828571Y-70702438D02*
X79780952Y-70750057D01*
X79780952Y-70750057D02*
X79733333Y-70845295D01*
X79733333Y-70845295D02*
X79733333Y-70892914D01*
X79733333Y-70892914D02*
X79780952Y-70988152D01*
X79780952Y-70988152D02*
X79828571Y-71035771D01*
X79828571Y-71035771D02*
X79923809Y-71083390D01*
X79923809Y-71083390D02*
X80114285Y-71083390D01*
X80114285Y-71083390D02*
X80209523Y-71131009D01*
X80209523Y-71131009D02*
X80257142Y-71178628D01*
X80257142Y-71178628D02*
X80304761Y-71273866D01*
X80304761Y-71273866D02*
X80304761Y-71464342D01*
X80304761Y-71464342D02*
X80257142Y-71559580D01*
X80257142Y-71559580D02*
X80209523Y-71607200D01*
X80209523Y-71607200D02*
X80114285Y-71654819D01*
X80114285Y-71654819D02*
X79923809Y-71654819D01*
X79923809Y-71654819D02*
X79828571Y-71607200D01*
X79828571Y-71607200D02*
X79780952Y-71559580D01*
X79780952Y-71559580D02*
X79733333Y-71464342D01*
X79733333Y-71464342D02*
X79733333Y-71273866D01*
X79733333Y-71273866D02*
X79780952Y-71178628D01*
X79780952Y-71178628D02*
X79828571Y-71131009D01*
X79828571Y-71131009D02*
X79923809Y-71083390D01*
X86614285Y-71854819D02*
X86614285Y-70854819D01*
X86614285Y-70854819D02*
X86376190Y-70854819D01*
X86376190Y-70854819D02*
X86233333Y-70902438D01*
X86233333Y-70902438D02*
X86138095Y-70997676D01*
X86138095Y-70997676D02*
X86090476Y-71092914D01*
X86090476Y-71092914D02*
X86042857Y-71283390D01*
X86042857Y-71283390D02*
X86042857Y-71426247D01*
X86042857Y-71426247D02*
X86090476Y-71616723D01*
X86090476Y-71616723D02*
X86138095Y-71711961D01*
X86138095Y-71711961D02*
X86233333Y-71807200D01*
X86233333Y-71807200D02*
X86376190Y-71854819D01*
X86376190Y-71854819D02*
X86614285Y-71854819D01*
X85090476Y-71854819D02*
X85661904Y-71854819D01*
X85376190Y-71854819D02*
X85376190Y-70854819D01*
X85376190Y-70854819D02*
X85471428Y-70997676D01*
X85471428Y-70997676D02*
X85566666Y-71092914D01*
X85566666Y-71092914D02*
X85661904Y-71140533D01*
X84471428Y-70854819D02*
X84376190Y-70854819D01*
X84376190Y-70854819D02*
X84280952Y-70902438D01*
X84280952Y-70902438D02*
X84233333Y-70950057D01*
X84233333Y-70950057D02*
X84185714Y-71045295D01*
X84185714Y-71045295D02*
X84138095Y-71235771D01*
X84138095Y-71235771D02*
X84138095Y-71473866D01*
X84138095Y-71473866D02*
X84185714Y-71664342D01*
X84185714Y-71664342D02*
X84233333Y-71759580D01*
X84233333Y-71759580D02*
X84280952Y-71807200D01*
X84280952Y-71807200D02*
X84376190Y-71854819D01*
X84376190Y-71854819D02*
X84471428Y-71854819D01*
X84471428Y-71854819D02*
X84566666Y-71807200D01*
X84566666Y-71807200D02*
X84614285Y-71759580D01*
X84614285Y-71759580D02*
X84661904Y-71664342D01*
X84661904Y-71664342D02*
X84709523Y-71473866D01*
X84709523Y-71473866D02*
X84709523Y-71235771D01*
X84709523Y-71235771D02*
X84661904Y-71045295D01*
X84661904Y-71045295D02*
X84614285Y-70950057D01*
X84614285Y-70950057D02*
X84566666Y-70902438D01*
X84566666Y-70902438D02*
X84471428Y-70854819D01*
X147636587Y-70854819D02*
X147636587Y-71569104D01*
X147636587Y-71569104D02*
X147684206Y-71711961D01*
X147684206Y-71711961D02*
X147779444Y-71807200D01*
X147779444Y-71807200D02*
X147922301Y-71854819D01*
X147922301Y-71854819D02*
X148017539Y-71854819D01*
X147160396Y-71854819D02*
X147160396Y-70854819D01*
X147160396Y-70854819D02*
X146779444Y-70854819D01*
X146779444Y-70854819D02*
X146684206Y-70902438D01*
X146684206Y-70902438D02*
X146636587Y-70950057D01*
X146636587Y-70950057D02*
X146588968Y-71045295D01*
X146588968Y-71045295D02*
X146588968Y-71188152D01*
X146588968Y-71188152D02*
X146636587Y-71283390D01*
X146636587Y-71283390D02*
X146684206Y-71331009D01*
X146684206Y-71331009D02*
X146779444Y-71378628D01*
X146779444Y-71378628D02*
X147160396Y-71378628D01*
X146208015Y-70950057D02*
X146160396Y-70902438D01*
X146160396Y-70902438D02*
X146065158Y-70854819D01*
X146065158Y-70854819D02*
X145827063Y-70854819D01*
X145827063Y-70854819D02*
X145731825Y-70902438D01*
X145731825Y-70902438D02*
X145684206Y-70950057D01*
X145684206Y-70950057D02*
X145636587Y-71045295D01*
X145636587Y-71045295D02*
X145636587Y-71140533D01*
X145636587Y-71140533D02*
X145684206Y-71283390D01*
X145684206Y-71283390D02*
X146255634Y-71854819D01*
X146255634Y-71854819D02*
X145636587Y-71854819D01*
X144779444Y-70854819D02*
X144969920Y-70854819D01*
X144969920Y-70854819D02*
X145065158Y-70902438D01*
X145065158Y-70902438D02*
X145112777Y-70950057D01*
X145112777Y-70950057D02*
X145208015Y-71092914D01*
X145208015Y-71092914D02*
X145255634Y-71283390D01*
X145255634Y-71283390D02*
X145255634Y-71664342D01*
X145255634Y-71664342D02*
X145208015Y-71759580D01*
X145208015Y-71759580D02*
X145160396Y-71807200D01*
X145160396Y-71807200D02*
X145065158Y-71854819D01*
X145065158Y-71854819D02*
X144874682Y-71854819D01*
X144874682Y-71854819D02*
X144779444Y-71807200D01*
X144779444Y-71807200D02*
X144731825Y-71759580D01*
X144731825Y-71759580D02*
X144684206Y-71664342D01*
X144684206Y-71664342D02*
X144684206Y-71426247D01*
X144684206Y-71426247D02*
X144731825Y-71331009D01*
X144731825Y-71331009D02*
X144779444Y-71283390D01*
X144779444Y-71283390D02*
X144874682Y-71235771D01*
X144874682Y-71235771D02*
X145065158Y-71235771D01*
X145065158Y-71235771D02*
X145160396Y-71283390D01*
X145160396Y-71283390D02*
X145208015Y-71331009D01*
X145208015Y-71331009D02*
X145255634Y-71426247D01*
X114392857Y-77854819D02*
X114726190Y-77378628D01*
X114964285Y-77854819D02*
X114964285Y-76854819D01*
X114964285Y-76854819D02*
X114583333Y-76854819D01*
X114583333Y-76854819D02*
X114488095Y-76902438D01*
X114488095Y-76902438D02*
X114440476Y-76950057D01*
X114440476Y-76950057D02*
X114392857Y-77045295D01*
X114392857Y-77045295D02*
X114392857Y-77188152D01*
X114392857Y-77188152D02*
X114440476Y-77283390D01*
X114440476Y-77283390D02*
X114488095Y-77331009D01*
X114488095Y-77331009D02*
X114583333Y-77378628D01*
X114583333Y-77378628D02*
X114964285Y-77378628D01*
X113440476Y-77854819D02*
X114011904Y-77854819D01*
X113726190Y-77854819D02*
X113726190Y-76854819D01*
X113726190Y-76854819D02*
X113821428Y-76997676D01*
X113821428Y-76997676D02*
X113916666Y-77092914D01*
X113916666Y-77092914D02*
X114011904Y-77140533D01*
X112583333Y-77188152D02*
X112583333Y-77854819D01*
X112821428Y-76807200D02*
X113059523Y-77521485D01*
X113059523Y-77521485D02*
X112440476Y-77521485D01*
X69942857Y-86754819D02*
X70276190Y-86278628D01*
X70514285Y-86754819D02*
X70514285Y-85754819D01*
X70514285Y-85754819D02*
X70133333Y-85754819D01*
X70133333Y-85754819D02*
X70038095Y-85802438D01*
X70038095Y-85802438D02*
X69990476Y-85850057D01*
X69990476Y-85850057D02*
X69942857Y-85945295D01*
X69942857Y-85945295D02*
X69942857Y-86088152D01*
X69942857Y-86088152D02*
X69990476Y-86183390D01*
X69990476Y-86183390D02*
X70038095Y-86231009D01*
X70038095Y-86231009D02*
X70133333Y-86278628D01*
X70133333Y-86278628D02*
X70514285Y-86278628D01*
X69561904Y-85850057D02*
X69514285Y-85802438D01*
X69514285Y-85802438D02*
X69419047Y-85754819D01*
X69419047Y-85754819D02*
X69180952Y-85754819D01*
X69180952Y-85754819D02*
X69085714Y-85802438D01*
X69085714Y-85802438D02*
X69038095Y-85850057D01*
X69038095Y-85850057D02*
X68990476Y-85945295D01*
X68990476Y-85945295D02*
X68990476Y-86040533D01*
X68990476Y-86040533D02*
X69038095Y-86183390D01*
X69038095Y-86183390D02*
X69609523Y-86754819D01*
X69609523Y-86754819D02*
X68990476Y-86754819D01*
X68371428Y-85754819D02*
X68276190Y-85754819D01*
X68276190Y-85754819D02*
X68180952Y-85802438D01*
X68180952Y-85802438D02*
X68133333Y-85850057D01*
X68133333Y-85850057D02*
X68085714Y-85945295D01*
X68085714Y-85945295D02*
X68038095Y-86135771D01*
X68038095Y-86135771D02*
X68038095Y-86373866D01*
X68038095Y-86373866D02*
X68085714Y-86564342D01*
X68085714Y-86564342D02*
X68133333Y-86659580D01*
X68133333Y-86659580D02*
X68180952Y-86707200D01*
X68180952Y-86707200D02*
X68276190Y-86754819D01*
X68276190Y-86754819D02*
X68371428Y-86754819D01*
X68371428Y-86754819D02*
X68466666Y-86707200D01*
X68466666Y-86707200D02*
X68514285Y-86659580D01*
X68514285Y-86659580D02*
X68561904Y-86564342D01*
X68561904Y-86564342D02*
X68609523Y-86373866D01*
X68609523Y-86373866D02*
X68609523Y-86135771D01*
X68609523Y-86135771D02*
X68561904Y-85945295D01*
X68561904Y-85945295D02*
X68514285Y-85850057D01*
X68514285Y-85850057D02*
X68466666Y-85802438D01*
X68466666Y-85802438D02*
X68371428Y-85754819D01*
X98142857Y-77854819D02*
X98476190Y-77378628D01*
X98714285Y-77854819D02*
X98714285Y-76854819D01*
X98714285Y-76854819D02*
X98333333Y-76854819D01*
X98333333Y-76854819D02*
X98238095Y-76902438D01*
X98238095Y-76902438D02*
X98190476Y-76950057D01*
X98190476Y-76950057D02*
X98142857Y-77045295D01*
X98142857Y-77045295D02*
X98142857Y-77188152D01*
X98142857Y-77188152D02*
X98190476Y-77283390D01*
X98190476Y-77283390D02*
X98238095Y-77331009D01*
X98238095Y-77331009D02*
X98333333Y-77378628D01*
X98333333Y-77378628D02*
X98714285Y-77378628D01*
X97190476Y-77854819D02*
X97761904Y-77854819D01*
X97476190Y-77854819D02*
X97476190Y-76854819D01*
X97476190Y-76854819D02*
X97571428Y-76997676D01*
X97571428Y-76997676D02*
X97666666Y-77092914D01*
X97666666Y-77092914D02*
X97761904Y-77140533D01*
X96809523Y-76950057D02*
X96761904Y-76902438D01*
X96761904Y-76902438D02*
X96666666Y-76854819D01*
X96666666Y-76854819D02*
X96428571Y-76854819D01*
X96428571Y-76854819D02*
X96333333Y-76902438D01*
X96333333Y-76902438D02*
X96285714Y-76950057D01*
X96285714Y-76950057D02*
X96238095Y-77045295D01*
X96238095Y-77045295D02*
X96238095Y-77140533D01*
X96238095Y-77140533D02*
X96285714Y-77283390D01*
X96285714Y-77283390D02*
X96857142Y-77854819D01*
X96857142Y-77854819D02*
X96238095Y-77854819D01*
X78309523Y-81154819D02*
X78309523Y-81869104D01*
X78309523Y-81869104D02*
X78357142Y-82011961D01*
X78357142Y-82011961D02*
X78452380Y-82107200D01*
X78452380Y-82107200D02*
X78595237Y-82154819D01*
X78595237Y-82154819D02*
X78690475Y-82154819D01*
X77833332Y-82154819D02*
X77833332Y-81154819D01*
X77833332Y-81154819D02*
X77452380Y-81154819D01*
X77452380Y-81154819D02*
X77357142Y-81202438D01*
X77357142Y-81202438D02*
X77309523Y-81250057D01*
X77309523Y-81250057D02*
X77261904Y-81345295D01*
X77261904Y-81345295D02*
X77261904Y-81488152D01*
X77261904Y-81488152D02*
X77309523Y-81583390D01*
X77309523Y-81583390D02*
X77357142Y-81631009D01*
X77357142Y-81631009D02*
X77452380Y-81678628D01*
X77452380Y-81678628D02*
X77833332Y-81678628D01*
X76309523Y-82154819D02*
X76880951Y-82154819D01*
X76595237Y-82154819D02*
X76595237Y-81154819D01*
X76595237Y-81154819D02*
X76690475Y-81297676D01*
X76690475Y-81297676D02*
X76785713Y-81392914D01*
X76785713Y-81392914D02*
X76880951Y-81440533D01*
X75833332Y-82154819D02*
X75642856Y-82154819D01*
X75642856Y-82154819D02*
X75547618Y-82107200D01*
X75547618Y-82107200D02*
X75499999Y-82059580D01*
X75499999Y-82059580D02*
X75404761Y-81916723D01*
X75404761Y-81916723D02*
X75357142Y-81726247D01*
X75357142Y-81726247D02*
X75357142Y-81345295D01*
X75357142Y-81345295D02*
X75404761Y-81250057D01*
X75404761Y-81250057D02*
X75452380Y-81202438D01*
X75452380Y-81202438D02*
X75547618Y-81154819D01*
X75547618Y-81154819D02*
X75738094Y-81154819D01*
X75738094Y-81154819D02*
X75833332Y-81202438D01*
X75833332Y-81202438D02*
X75880951Y-81250057D01*
X75880951Y-81250057D02*
X75928570Y-81345295D01*
X75928570Y-81345295D02*
X75928570Y-81583390D01*
X75928570Y-81583390D02*
X75880951Y-81678628D01*
X75880951Y-81678628D02*
X75833332Y-81726247D01*
X75833332Y-81726247D02*
X75738094Y-81773866D01*
X75738094Y-81773866D02*
X75547618Y-81773866D01*
X75547618Y-81773866D02*
X75452380Y-81726247D01*
X75452380Y-81726247D02*
X75404761Y-81678628D01*
X75404761Y-81678628D02*
X75357142Y-81583390D01*
X70409523Y-81254819D02*
X70409523Y-81969104D01*
X70409523Y-81969104D02*
X70457142Y-82111961D01*
X70457142Y-82111961D02*
X70552380Y-82207200D01*
X70552380Y-82207200D02*
X70695237Y-82254819D01*
X70695237Y-82254819D02*
X70790475Y-82254819D01*
X69933332Y-82254819D02*
X69933332Y-81254819D01*
X69933332Y-81254819D02*
X69552380Y-81254819D01*
X69552380Y-81254819D02*
X69457142Y-81302438D01*
X69457142Y-81302438D02*
X69409523Y-81350057D01*
X69409523Y-81350057D02*
X69361904Y-81445295D01*
X69361904Y-81445295D02*
X69361904Y-81588152D01*
X69361904Y-81588152D02*
X69409523Y-81683390D01*
X69409523Y-81683390D02*
X69457142Y-81731009D01*
X69457142Y-81731009D02*
X69552380Y-81778628D01*
X69552380Y-81778628D02*
X69933332Y-81778628D01*
X68409523Y-82254819D02*
X68980951Y-82254819D01*
X68695237Y-82254819D02*
X68695237Y-81254819D01*
X68695237Y-81254819D02*
X68790475Y-81397676D01*
X68790475Y-81397676D02*
X68885713Y-81492914D01*
X68885713Y-81492914D02*
X68980951Y-81540533D01*
X67838094Y-81683390D02*
X67933332Y-81635771D01*
X67933332Y-81635771D02*
X67980951Y-81588152D01*
X67980951Y-81588152D02*
X68028570Y-81492914D01*
X68028570Y-81492914D02*
X68028570Y-81445295D01*
X68028570Y-81445295D02*
X67980951Y-81350057D01*
X67980951Y-81350057D02*
X67933332Y-81302438D01*
X67933332Y-81302438D02*
X67838094Y-81254819D01*
X67838094Y-81254819D02*
X67647618Y-81254819D01*
X67647618Y-81254819D02*
X67552380Y-81302438D01*
X67552380Y-81302438D02*
X67504761Y-81350057D01*
X67504761Y-81350057D02*
X67457142Y-81445295D01*
X67457142Y-81445295D02*
X67457142Y-81492914D01*
X67457142Y-81492914D02*
X67504761Y-81588152D01*
X67504761Y-81588152D02*
X67552380Y-81635771D01*
X67552380Y-81635771D02*
X67647618Y-81683390D01*
X67647618Y-81683390D02*
X67838094Y-81683390D01*
X67838094Y-81683390D02*
X67933332Y-81731009D01*
X67933332Y-81731009D02*
X67980951Y-81778628D01*
X67980951Y-81778628D02*
X68028570Y-81873866D01*
X68028570Y-81873866D02*
X68028570Y-82064342D01*
X68028570Y-82064342D02*
X67980951Y-82159580D01*
X67980951Y-82159580D02*
X67933332Y-82207200D01*
X67933332Y-82207200D02*
X67838094Y-82254819D01*
X67838094Y-82254819D02*
X67647618Y-82254819D01*
X67647618Y-82254819D02*
X67552380Y-82207200D01*
X67552380Y-82207200D02*
X67504761Y-82159580D01*
X67504761Y-82159580D02*
X67457142Y-82064342D01*
X67457142Y-82064342D02*
X67457142Y-81873866D01*
X67457142Y-81873866D02*
X67504761Y-81778628D01*
X67504761Y-81778628D02*
X67552380Y-81731009D01*
X67552380Y-81731009D02*
X67647618Y-81683390D01*
X98709523Y-70754819D02*
X98709523Y-71469104D01*
X98709523Y-71469104D02*
X98757142Y-71611961D01*
X98757142Y-71611961D02*
X98852380Y-71707200D01*
X98852380Y-71707200D02*
X98995237Y-71754819D01*
X98995237Y-71754819D02*
X99090475Y-71754819D01*
X98233332Y-71754819D02*
X98233332Y-70754819D01*
X98233332Y-70754819D02*
X97852380Y-70754819D01*
X97852380Y-70754819D02*
X97757142Y-70802438D01*
X97757142Y-70802438D02*
X97709523Y-70850057D01*
X97709523Y-70850057D02*
X97661904Y-70945295D01*
X97661904Y-70945295D02*
X97661904Y-71088152D01*
X97661904Y-71088152D02*
X97709523Y-71183390D01*
X97709523Y-71183390D02*
X97757142Y-71231009D01*
X97757142Y-71231009D02*
X97852380Y-71278628D01*
X97852380Y-71278628D02*
X98233332Y-71278628D01*
X96709523Y-71754819D02*
X97280951Y-71754819D01*
X96995237Y-71754819D02*
X96995237Y-70754819D01*
X96995237Y-70754819D02*
X97090475Y-70897676D01*
X97090475Y-70897676D02*
X97185713Y-70992914D01*
X97185713Y-70992914D02*
X97280951Y-71040533D01*
X96090475Y-70754819D02*
X95995237Y-70754819D01*
X95995237Y-70754819D02*
X95899999Y-70802438D01*
X95899999Y-70802438D02*
X95852380Y-70850057D01*
X95852380Y-70850057D02*
X95804761Y-70945295D01*
X95804761Y-70945295D02*
X95757142Y-71135771D01*
X95757142Y-71135771D02*
X95757142Y-71373866D01*
X95757142Y-71373866D02*
X95804761Y-71564342D01*
X95804761Y-71564342D02*
X95852380Y-71659580D01*
X95852380Y-71659580D02*
X95899999Y-71707200D01*
X95899999Y-71707200D02*
X95995237Y-71754819D01*
X95995237Y-71754819D02*
X96090475Y-71754819D01*
X96090475Y-71754819D02*
X96185713Y-71707200D01*
X96185713Y-71707200D02*
X96233332Y-71659580D01*
X96233332Y-71659580D02*
X96280951Y-71564342D01*
X96280951Y-71564342D02*
X96328570Y-71373866D01*
X96328570Y-71373866D02*
X96328570Y-71135771D01*
X96328570Y-71135771D02*
X96280951Y-70945295D01*
X96280951Y-70945295D02*
X96233332Y-70850057D01*
X96233332Y-70850057D02*
X96185713Y-70802438D01*
X96185713Y-70802438D02*
X96090475Y-70754819D01*
X131086587Y-70804819D02*
X131086587Y-71519104D01*
X131086587Y-71519104D02*
X131134206Y-71661961D01*
X131134206Y-71661961D02*
X131229444Y-71757200D01*
X131229444Y-71757200D02*
X131372301Y-71804819D01*
X131372301Y-71804819D02*
X131467539Y-71804819D01*
X130610396Y-71804819D02*
X130610396Y-70804819D01*
X130610396Y-70804819D02*
X130229444Y-70804819D01*
X130229444Y-70804819D02*
X130134206Y-70852438D01*
X130134206Y-70852438D02*
X130086587Y-70900057D01*
X130086587Y-70900057D02*
X130038968Y-70995295D01*
X130038968Y-70995295D02*
X130038968Y-71138152D01*
X130038968Y-71138152D02*
X130086587Y-71233390D01*
X130086587Y-71233390D02*
X130134206Y-71281009D01*
X130134206Y-71281009D02*
X130229444Y-71328628D01*
X130229444Y-71328628D02*
X130610396Y-71328628D01*
X129658015Y-70900057D02*
X129610396Y-70852438D01*
X129610396Y-70852438D02*
X129515158Y-70804819D01*
X129515158Y-70804819D02*
X129277063Y-70804819D01*
X129277063Y-70804819D02*
X129181825Y-70852438D01*
X129181825Y-70852438D02*
X129134206Y-70900057D01*
X129134206Y-70900057D02*
X129086587Y-70995295D01*
X129086587Y-70995295D02*
X129086587Y-71090533D01*
X129086587Y-71090533D02*
X129134206Y-71233390D01*
X129134206Y-71233390D02*
X129705634Y-71804819D01*
X129705634Y-71804819D02*
X129086587Y-71804819D01*
X128705634Y-70900057D02*
X128658015Y-70852438D01*
X128658015Y-70852438D02*
X128562777Y-70804819D01*
X128562777Y-70804819D02*
X128324682Y-70804819D01*
X128324682Y-70804819D02*
X128229444Y-70852438D01*
X128229444Y-70852438D02*
X128181825Y-70900057D01*
X128181825Y-70900057D02*
X128134206Y-70995295D01*
X128134206Y-70995295D02*
X128134206Y-71090533D01*
X128134206Y-71090533D02*
X128181825Y-71233390D01*
X128181825Y-71233390D02*
X128753253Y-71804819D01*
X128753253Y-71804819D02*
X128134206Y-71804819D01*
X89642857Y-77804819D02*
X89976190Y-77328628D01*
X90214285Y-77804819D02*
X90214285Y-76804819D01*
X90214285Y-76804819D02*
X89833333Y-76804819D01*
X89833333Y-76804819D02*
X89738095Y-76852438D01*
X89738095Y-76852438D02*
X89690476Y-76900057D01*
X89690476Y-76900057D02*
X89642857Y-76995295D01*
X89642857Y-76995295D02*
X89642857Y-77138152D01*
X89642857Y-77138152D02*
X89690476Y-77233390D01*
X89690476Y-77233390D02*
X89738095Y-77281009D01*
X89738095Y-77281009D02*
X89833333Y-77328628D01*
X89833333Y-77328628D02*
X90214285Y-77328628D01*
X88690476Y-77804819D02*
X89261904Y-77804819D01*
X88976190Y-77804819D02*
X88976190Y-76804819D01*
X88976190Y-76804819D02*
X89071428Y-76947676D01*
X89071428Y-76947676D02*
X89166666Y-77042914D01*
X89166666Y-77042914D02*
X89261904Y-77090533D01*
X87738095Y-77804819D02*
X88309523Y-77804819D01*
X88023809Y-77804819D02*
X88023809Y-76804819D01*
X88023809Y-76804819D02*
X88119047Y-76947676D01*
X88119047Y-76947676D02*
X88214285Y-77042914D01*
X88214285Y-77042914D02*
X88309523Y-77090533D01*
X78238094Y-71954819D02*
X78238094Y-70954819D01*
X78238094Y-70954819D02*
X77999999Y-70954819D01*
X77999999Y-70954819D02*
X77857142Y-71002438D01*
X77857142Y-71002438D02*
X77761904Y-71097676D01*
X77761904Y-71097676D02*
X77714285Y-71192914D01*
X77714285Y-71192914D02*
X77666666Y-71383390D01*
X77666666Y-71383390D02*
X77666666Y-71526247D01*
X77666666Y-71526247D02*
X77714285Y-71716723D01*
X77714285Y-71716723D02*
X77761904Y-71811961D01*
X77761904Y-71811961D02*
X77857142Y-71907200D01*
X77857142Y-71907200D02*
X77999999Y-71954819D01*
X77999999Y-71954819D02*
X78238094Y-71954819D01*
X77190475Y-71954819D02*
X76999999Y-71954819D01*
X76999999Y-71954819D02*
X76904761Y-71907200D01*
X76904761Y-71907200D02*
X76857142Y-71859580D01*
X76857142Y-71859580D02*
X76761904Y-71716723D01*
X76761904Y-71716723D02*
X76714285Y-71526247D01*
X76714285Y-71526247D02*
X76714285Y-71145295D01*
X76714285Y-71145295D02*
X76761904Y-71050057D01*
X76761904Y-71050057D02*
X76809523Y-71002438D01*
X76809523Y-71002438D02*
X76904761Y-70954819D01*
X76904761Y-70954819D02*
X77095237Y-70954819D01*
X77095237Y-70954819D02*
X77190475Y-71002438D01*
X77190475Y-71002438D02*
X77238094Y-71050057D01*
X77238094Y-71050057D02*
X77285713Y-71145295D01*
X77285713Y-71145295D02*
X77285713Y-71383390D01*
X77285713Y-71383390D02*
X77238094Y-71478628D01*
X77238094Y-71478628D02*
X77190475Y-71526247D01*
X77190475Y-71526247D02*
X77095237Y-71573866D01*
X77095237Y-71573866D02*
X76904761Y-71573866D01*
X76904761Y-71573866D02*
X76809523Y-71526247D01*
X76809523Y-71526247D02*
X76761904Y-71478628D01*
X76761904Y-71478628D02*
X76714285Y-71383390D01*
X135314285Y-71854819D02*
X135314285Y-70854819D01*
X135314285Y-70854819D02*
X135076190Y-70854819D01*
X135076190Y-70854819D02*
X134933333Y-70902438D01*
X134933333Y-70902438D02*
X134838095Y-70997676D01*
X134838095Y-70997676D02*
X134790476Y-71092914D01*
X134790476Y-71092914D02*
X134742857Y-71283390D01*
X134742857Y-71283390D02*
X134742857Y-71426247D01*
X134742857Y-71426247D02*
X134790476Y-71616723D01*
X134790476Y-71616723D02*
X134838095Y-71711961D01*
X134838095Y-71711961D02*
X134933333Y-71807200D01*
X134933333Y-71807200D02*
X135076190Y-71854819D01*
X135076190Y-71854819D02*
X135314285Y-71854819D01*
X134361904Y-70950057D02*
X134314285Y-70902438D01*
X134314285Y-70902438D02*
X134219047Y-70854819D01*
X134219047Y-70854819D02*
X133980952Y-70854819D01*
X133980952Y-70854819D02*
X133885714Y-70902438D01*
X133885714Y-70902438D02*
X133838095Y-70950057D01*
X133838095Y-70950057D02*
X133790476Y-71045295D01*
X133790476Y-71045295D02*
X133790476Y-71140533D01*
X133790476Y-71140533D02*
X133838095Y-71283390D01*
X133838095Y-71283390D02*
X134409523Y-71854819D01*
X134409523Y-71854819D02*
X133790476Y-71854819D01*
X132885714Y-70854819D02*
X133361904Y-70854819D01*
X133361904Y-70854819D02*
X133409523Y-71331009D01*
X133409523Y-71331009D02*
X133361904Y-71283390D01*
X133361904Y-71283390D02*
X133266666Y-71235771D01*
X133266666Y-71235771D02*
X133028571Y-71235771D01*
X133028571Y-71235771D02*
X132933333Y-71283390D01*
X132933333Y-71283390D02*
X132885714Y-71331009D01*
X132885714Y-71331009D02*
X132838095Y-71426247D01*
X132838095Y-71426247D02*
X132838095Y-71664342D01*
X132838095Y-71664342D02*
X132885714Y-71759580D01*
X132885714Y-71759580D02*
X132933333Y-71807200D01*
X132933333Y-71807200D02*
X133028571Y-71854819D01*
X133028571Y-71854819D02*
X133266666Y-71854819D01*
X133266666Y-71854819D02*
X133361904Y-71807200D01*
X133361904Y-71807200D02*
X133409523Y-71759580D01*
X155519921Y-78154819D02*
X155853254Y-77678628D01*
X156091349Y-78154819D02*
X156091349Y-77154819D01*
X156091349Y-77154819D02*
X155710397Y-77154819D01*
X155710397Y-77154819D02*
X155615159Y-77202438D01*
X155615159Y-77202438D02*
X155567540Y-77250057D01*
X155567540Y-77250057D02*
X155519921Y-77345295D01*
X155519921Y-77345295D02*
X155519921Y-77488152D01*
X155519921Y-77488152D02*
X155567540Y-77583390D01*
X155567540Y-77583390D02*
X155615159Y-77631009D01*
X155615159Y-77631009D02*
X155710397Y-77678628D01*
X155710397Y-77678628D02*
X156091349Y-77678628D01*
X155138968Y-77250057D02*
X155091349Y-77202438D01*
X155091349Y-77202438D02*
X154996111Y-77154819D01*
X154996111Y-77154819D02*
X154758016Y-77154819D01*
X154758016Y-77154819D02*
X154662778Y-77202438D01*
X154662778Y-77202438D02*
X154615159Y-77250057D01*
X154615159Y-77250057D02*
X154567540Y-77345295D01*
X154567540Y-77345295D02*
X154567540Y-77440533D01*
X154567540Y-77440533D02*
X154615159Y-77583390D01*
X154615159Y-77583390D02*
X155186587Y-78154819D01*
X155186587Y-78154819D02*
X154567540Y-78154819D01*
X154091349Y-78154819D02*
X153900873Y-78154819D01*
X153900873Y-78154819D02*
X153805635Y-78107200D01*
X153805635Y-78107200D02*
X153758016Y-78059580D01*
X153758016Y-78059580D02*
X153662778Y-77916723D01*
X153662778Y-77916723D02*
X153615159Y-77726247D01*
X153615159Y-77726247D02*
X153615159Y-77345295D01*
X153615159Y-77345295D02*
X153662778Y-77250057D01*
X153662778Y-77250057D02*
X153710397Y-77202438D01*
X153710397Y-77202438D02*
X153805635Y-77154819D01*
X153805635Y-77154819D02*
X153996111Y-77154819D01*
X153996111Y-77154819D02*
X154091349Y-77202438D01*
X154091349Y-77202438D02*
X154138968Y-77250057D01*
X154138968Y-77250057D02*
X154186587Y-77345295D01*
X154186587Y-77345295D02*
X154186587Y-77583390D01*
X154186587Y-77583390D02*
X154138968Y-77678628D01*
X154138968Y-77678628D02*
X154091349Y-77726247D01*
X154091349Y-77726247D02*
X153996111Y-77773866D01*
X153996111Y-77773866D02*
X153805635Y-77773866D01*
X153805635Y-77773866D02*
X153710397Y-77726247D01*
X153710397Y-77726247D02*
X153662778Y-77678628D01*
X153662778Y-77678628D02*
X153615159Y-77583390D01*
X156186587Y-71154819D02*
X156186587Y-71869104D01*
X156186587Y-71869104D02*
X156234206Y-72011961D01*
X156234206Y-72011961D02*
X156329444Y-72107200D01*
X156329444Y-72107200D02*
X156472301Y-72154819D01*
X156472301Y-72154819D02*
X156567539Y-72154819D01*
X155710396Y-72154819D02*
X155710396Y-71154819D01*
X155710396Y-71154819D02*
X155329444Y-71154819D01*
X155329444Y-71154819D02*
X155234206Y-71202438D01*
X155234206Y-71202438D02*
X155186587Y-71250057D01*
X155186587Y-71250057D02*
X155138968Y-71345295D01*
X155138968Y-71345295D02*
X155138968Y-71488152D01*
X155138968Y-71488152D02*
X155186587Y-71583390D01*
X155186587Y-71583390D02*
X155234206Y-71631009D01*
X155234206Y-71631009D02*
X155329444Y-71678628D01*
X155329444Y-71678628D02*
X155710396Y-71678628D01*
X154758015Y-71250057D02*
X154710396Y-71202438D01*
X154710396Y-71202438D02*
X154615158Y-71154819D01*
X154615158Y-71154819D02*
X154377063Y-71154819D01*
X154377063Y-71154819D02*
X154281825Y-71202438D01*
X154281825Y-71202438D02*
X154234206Y-71250057D01*
X154234206Y-71250057D02*
X154186587Y-71345295D01*
X154186587Y-71345295D02*
X154186587Y-71440533D01*
X154186587Y-71440533D02*
X154234206Y-71583390D01*
X154234206Y-71583390D02*
X154805634Y-72154819D01*
X154805634Y-72154819D02*
X154186587Y-72154819D01*
X153853253Y-71154819D02*
X153186587Y-71154819D01*
X153186587Y-71154819D02*
X153615158Y-72154819D01*
X94814285Y-71754819D02*
X94814285Y-70754819D01*
X94814285Y-70754819D02*
X94576190Y-70754819D01*
X94576190Y-70754819D02*
X94433333Y-70802438D01*
X94433333Y-70802438D02*
X94338095Y-70897676D01*
X94338095Y-70897676D02*
X94290476Y-70992914D01*
X94290476Y-70992914D02*
X94242857Y-71183390D01*
X94242857Y-71183390D02*
X94242857Y-71326247D01*
X94242857Y-71326247D02*
X94290476Y-71516723D01*
X94290476Y-71516723D02*
X94338095Y-71611961D01*
X94338095Y-71611961D02*
X94433333Y-71707200D01*
X94433333Y-71707200D02*
X94576190Y-71754819D01*
X94576190Y-71754819D02*
X94814285Y-71754819D01*
X93290476Y-71754819D02*
X93861904Y-71754819D01*
X93576190Y-71754819D02*
X93576190Y-70754819D01*
X93576190Y-70754819D02*
X93671428Y-70897676D01*
X93671428Y-70897676D02*
X93766666Y-70992914D01*
X93766666Y-70992914D02*
X93861904Y-71040533D01*
X92338095Y-71754819D02*
X92909523Y-71754819D01*
X92623809Y-71754819D02*
X92623809Y-70754819D01*
X92623809Y-70754819D02*
X92719047Y-70897676D01*
X92719047Y-70897676D02*
X92814285Y-70992914D01*
X92814285Y-70992914D02*
X92909523Y-71040533D01*
X106342857Y-77854819D02*
X106676190Y-77378628D01*
X106914285Y-77854819D02*
X106914285Y-76854819D01*
X106914285Y-76854819D02*
X106533333Y-76854819D01*
X106533333Y-76854819D02*
X106438095Y-76902438D01*
X106438095Y-76902438D02*
X106390476Y-76950057D01*
X106390476Y-76950057D02*
X106342857Y-77045295D01*
X106342857Y-77045295D02*
X106342857Y-77188152D01*
X106342857Y-77188152D02*
X106390476Y-77283390D01*
X106390476Y-77283390D02*
X106438095Y-77331009D01*
X106438095Y-77331009D02*
X106533333Y-77378628D01*
X106533333Y-77378628D02*
X106914285Y-77378628D01*
X105390476Y-77854819D02*
X105961904Y-77854819D01*
X105676190Y-77854819D02*
X105676190Y-76854819D01*
X105676190Y-76854819D02*
X105771428Y-76997676D01*
X105771428Y-76997676D02*
X105866666Y-77092914D01*
X105866666Y-77092914D02*
X105961904Y-77140533D01*
X105057142Y-76854819D02*
X104438095Y-76854819D01*
X104438095Y-76854819D02*
X104771428Y-77235771D01*
X104771428Y-77235771D02*
X104628571Y-77235771D01*
X104628571Y-77235771D02*
X104533333Y-77283390D01*
X104533333Y-77283390D02*
X104485714Y-77331009D01*
X104485714Y-77331009D02*
X104438095Y-77426247D01*
X104438095Y-77426247D02*
X104438095Y-77664342D01*
X104438095Y-77664342D02*
X104485714Y-77759580D01*
X104485714Y-77759580D02*
X104533333Y-77807200D01*
X104533333Y-77807200D02*
X104628571Y-77854819D01*
X104628571Y-77854819D02*
X104914285Y-77854819D01*
X104914285Y-77854819D02*
X105009523Y-77807200D01*
X105009523Y-77807200D02*
X105057142Y-77759580D01*
X139336587Y-70804819D02*
X139336587Y-71519104D01*
X139336587Y-71519104D02*
X139384206Y-71661961D01*
X139384206Y-71661961D02*
X139479444Y-71757200D01*
X139479444Y-71757200D02*
X139622301Y-71804819D01*
X139622301Y-71804819D02*
X139717539Y-71804819D01*
X138860396Y-71804819D02*
X138860396Y-70804819D01*
X138860396Y-70804819D02*
X138479444Y-70804819D01*
X138479444Y-70804819D02*
X138384206Y-70852438D01*
X138384206Y-70852438D02*
X138336587Y-70900057D01*
X138336587Y-70900057D02*
X138288968Y-70995295D01*
X138288968Y-70995295D02*
X138288968Y-71138152D01*
X138288968Y-71138152D02*
X138336587Y-71233390D01*
X138336587Y-71233390D02*
X138384206Y-71281009D01*
X138384206Y-71281009D02*
X138479444Y-71328628D01*
X138479444Y-71328628D02*
X138860396Y-71328628D01*
X137908015Y-70900057D02*
X137860396Y-70852438D01*
X137860396Y-70852438D02*
X137765158Y-70804819D01*
X137765158Y-70804819D02*
X137527063Y-70804819D01*
X137527063Y-70804819D02*
X137431825Y-70852438D01*
X137431825Y-70852438D02*
X137384206Y-70900057D01*
X137384206Y-70900057D02*
X137336587Y-70995295D01*
X137336587Y-70995295D02*
X137336587Y-71090533D01*
X137336587Y-71090533D02*
X137384206Y-71233390D01*
X137384206Y-71233390D02*
X137955634Y-71804819D01*
X137955634Y-71804819D02*
X137336587Y-71804819D01*
X136479444Y-71138152D02*
X136479444Y-71804819D01*
X136717539Y-70757200D02*
X136955634Y-71471485D01*
X136955634Y-71471485D02*
X136336587Y-71471485D01*
X90000333Y-70638819D02*
X90000333Y-71353104D01*
X90000333Y-71353104D02*
X90047952Y-71495961D01*
X90047952Y-71495961D02*
X90143190Y-71591200D01*
X90143190Y-71591200D02*
X90286047Y-71638819D01*
X90286047Y-71638819D02*
X90381285Y-71638819D01*
X89524142Y-71638819D02*
X89524142Y-70638819D01*
X89524142Y-70638819D02*
X89143190Y-70638819D01*
X89143190Y-70638819D02*
X89047952Y-70686438D01*
X89047952Y-70686438D02*
X89000333Y-70734057D01*
X89000333Y-70734057D02*
X88952714Y-70829295D01*
X88952714Y-70829295D02*
X88952714Y-70972152D01*
X88952714Y-70972152D02*
X89000333Y-71067390D01*
X89000333Y-71067390D02*
X89047952Y-71115009D01*
X89047952Y-71115009D02*
X89143190Y-71162628D01*
X89143190Y-71162628D02*
X89524142Y-71162628D01*
X88476523Y-71638819D02*
X88286047Y-71638819D01*
X88286047Y-71638819D02*
X88190809Y-71591200D01*
X88190809Y-71591200D02*
X88143190Y-71543580D01*
X88143190Y-71543580D02*
X88047952Y-71400723D01*
X88047952Y-71400723D02*
X88000333Y-71210247D01*
X88000333Y-71210247D02*
X88000333Y-70829295D01*
X88000333Y-70829295D02*
X88047952Y-70734057D01*
X88047952Y-70734057D02*
X88095571Y-70686438D01*
X88095571Y-70686438D02*
X88190809Y-70638819D01*
X88190809Y-70638819D02*
X88381285Y-70638819D01*
X88381285Y-70638819D02*
X88476523Y-70686438D01*
X88476523Y-70686438D02*
X88524142Y-70734057D01*
X88524142Y-70734057D02*
X88571761Y-70829295D01*
X88571761Y-70829295D02*
X88571761Y-71067390D01*
X88571761Y-71067390D02*
X88524142Y-71162628D01*
X88524142Y-71162628D02*
X88476523Y-71210247D01*
X88476523Y-71210247D02*
X88381285Y-71257866D01*
X88381285Y-71257866D02*
X88190809Y-71257866D01*
X88190809Y-71257866D02*
X88095571Y-71210247D01*
X88095571Y-71210247D02*
X88047952Y-71162628D01*
X88047952Y-71162628D02*
X88000333Y-71067390D01*
X102914285Y-71854819D02*
X102914285Y-70854819D01*
X102914285Y-70854819D02*
X102676190Y-70854819D01*
X102676190Y-70854819D02*
X102533333Y-70902438D01*
X102533333Y-70902438D02*
X102438095Y-70997676D01*
X102438095Y-70997676D02*
X102390476Y-71092914D01*
X102390476Y-71092914D02*
X102342857Y-71283390D01*
X102342857Y-71283390D02*
X102342857Y-71426247D01*
X102342857Y-71426247D02*
X102390476Y-71616723D01*
X102390476Y-71616723D02*
X102438095Y-71711961D01*
X102438095Y-71711961D02*
X102533333Y-71807200D01*
X102533333Y-71807200D02*
X102676190Y-71854819D01*
X102676190Y-71854819D02*
X102914285Y-71854819D01*
X101390476Y-71854819D02*
X101961904Y-71854819D01*
X101676190Y-71854819D02*
X101676190Y-70854819D01*
X101676190Y-70854819D02*
X101771428Y-70997676D01*
X101771428Y-70997676D02*
X101866666Y-71092914D01*
X101866666Y-71092914D02*
X101961904Y-71140533D01*
X101009523Y-70950057D02*
X100961904Y-70902438D01*
X100961904Y-70902438D02*
X100866666Y-70854819D01*
X100866666Y-70854819D02*
X100628571Y-70854819D01*
X100628571Y-70854819D02*
X100533333Y-70902438D01*
X100533333Y-70902438D02*
X100485714Y-70950057D01*
X100485714Y-70950057D02*
X100438095Y-71045295D01*
X100438095Y-71045295D02*
X100438095Y-71140533D01*
X100438095Y-71140533D02*
X100485714Y-71283390D01*
X100485714Y-71283390D02*
X101057142Y-71854819D01*
X101057142Y-71854819D02*
X100438095Y-71854819D01*
X81742857Y-77754819D02*
X82076190Y-77278628D01*
X82314285Y-77754819D02*
X82314285Y-76754819D01*
X82314285Y-76754819D02*
X81933333Y-76754819D01*
X81933333Y-76754819D02*
X81838095Y-76802438D01*
X81838095Y-76802438D02*
X81790476Y-76850057D01*
X81790476Y-76850057D02*
X81742857Y-76945295D01*
X81742857Y-76945295D02*
X81742857Y-77088152D01*
X81742857Y-77088152D02*
X81790476Y-77183390D01*
X81790476Y-77183390D02*
X81838095Y-77231009D01*
X81838095Y-77231009D02*
X81933333Y-77278628D01*
X81933333Y-77278628D02*
X82314285Y-77278628D01*
X80790476Y-77754819D02*
X81361904Y-77754819D01*
X81076190Y-77754819D02*
X81076190Y-76754819D01*
X81076190Y-76754819D02*
X81171428Y-76897676D01*
X81171428Y-76897676D02*
X81266666Y-76992914D01*
X81266666Y-76992914D02*
X81361904Y-77040533D01*
X80171428Y-76754819D02*
X80076190Y-76754819D01*
X80076190Y-76754819D02*
X79980952Y-76802438D01*
X79980952Y-76802438D02*
X79933333Y-76850057D01*
X79933333Y-76850057D02*
X79885714Y-76945295D01*
X79885714Y-76945295D02*
X79838095Y-77135771D01*
X79838095Y-77135771D02*
X79838095Y-77373866D01*
X79838095Y-77373866D02*
X79885714Y-77564342D01*
X79885714Y-77564342D02*
X79933333Y-77659580D01*
X79933333Y-77659580D02*
X79980952Y-77707200D01*
X79980952Y-77707200D02*
X80076190Y-77754819D01*
X80076190Y-77754819D02*
X80171428Y-77754819D01*
X80171428Y-77754819D02*
X80266666Y-77707200D01*
X80266666Y-77707200D02*
X80314285Y-77659580D01*
X80314285Y-77659580D02*
X80361904Y-77564342D01*
X80361904Y-77564342D02*
X80409523Y-77373866D01*
X80409523Y-77373866D02*
X80409523Y-77135771D01*
X80409523Y-77135771D02*
X80361904Y-76945295D01*
X80361904Y-76945295D02*
X80314285Y-76850057D01*
X80314285Y-76850057D02*
X80266666Y-76802438D01*
X80266666Y-76802438D02*
X80171428Y-76754819D01*
X73166666Y-77854819D02*
X73499999Y-77378628D01*
X73738094Y-77854819D02*
X73738094Y-76854819D01*
X73738094Y-76854819D02*
X73357142Y-76854819D01*
X73357142Y-76854819D02*
X73261904Y-76902438D01*
X73261904Y-76902438D02*
X73214285Y-76950057D01*
X73214285Y-76950057D02*
X73166666Y-77045295D01*
X73166666Y-77045295D02*
X73166666Y-77188152D01*
X73166666Y-77188152D02*
X73214285Y-77283390D01*
X73214285Y-77283390D02*
X73261904Y-77331009D01*
X73261904Y-77331009D02*
X73357142Y-77378628D01*
X73357142Y-77378628D02*
X73738094Y-77378628D01*
X72595237Y-77283390D02*
X72690475Y-77235771D01*
X72690475Y-77235771D02*
X72738094Y-77188152D01*
X72738094Y-77188152D02*
X72785713Y-77092914D01*
X72785713Y-77092914D02*
X72785713Y-77045295D01*
X72785713Y-77045295D02*
X72738094Y-76950057D01*
X72738094Y-76950057D02*
X72690475Y-76902438D01*
X72690475Y-76902438D02*
X72595237Y-76854819D01*
X72595237Y-76854819D02*
X72404761Y-76854819D01*
X72404761Y-76854819D02*
X72309523Y-76902438D01*
X72309523Y-76902438D02*
X72261904Y-76950057D01*
X72261904Y-76950057D02*
X72214285Y-77045295D01*
X72214285Y-77045295D02*
X72214285Y-77092914D01*
X72214285Y-77092914D02*
X72261904Y-77188152D01*
X72261904Y-77188152D02*
X72309523Y-77235771D01*
X72309523Y-77235771D02*
X72404761Y-77283390D01*
X72404761Y-77283390D02*
X72595237Y-77283390D01*
X72595237Y-77283390D02*
X72690475Y-77331009D01*
X72690475Y-77331009D02*
X72738094Y-77378628D01*
X72738094Y-77378628D02*
X72785713Y-77473866D01*
X72785713Y-77473866D02*
X72785713Y-77664342D01*
X72785713Y-77664342D02*
X72738094Y-77759580D01*
X72738094Y-77759580D02*
X72690475Y-77807200D01*
X72690475Y-77807200D02*
X72595237Y-77854819D01*
X72595237Y-77854819D02*
X72404761Y-77854819D01*
X72404761Y-77854819D02*
X72309523Y-77807200D01*
X72309523Y-77807200D02*
X72261904Y-77759580D01*
X72261904Y-77759580D02*
X72214285Y-77664342D01*
X72214285Y-77664342D02*
X72214285Y-77473866D01*
X72214285Y-77473866D02*
X72261904Y-77378628D01*
X72261904Y-77378628D02*
X72309523Y-77331009D01*
X72309523Y-77331009D02*
X72404761Y-77283390D01*
X152314285Y-72254819D02*
X152314285Y-71254819D01*
X152314285Y-71254819D02*
X152076190Y-71254819D01*
X152076190Y-71254819D02*
X151933333Y-71302438D01*
X151933333Y-71302438D02*
X151838095Y-71397676D01*
X151838095Y-71397676D02*
X151790476Y-71492914D01*
X151790476Y-71492914D02*
X151742857Y-71683390D01*
X151742857Y-71683390D02*
X151742857Y-71826247D01*
X151742857Y-71826247D02*
X151790476Y-72016723D01*
X151790476Y-72016723D02*
X151838095Y-72111961D01*
X151838095Y-72111961D02*
X151933333Y-72207200D01*
X151933333Y-72207200D02*
X152076190Y-72254819D01*
X152076190Y-72254819D02*
X152314285Y-72254819D01*
X151361904Y-71350057D02*
X151314285Y-71302438D01*
X151314285Y-71302438D02*
X151219047Y-71254819D01*
X151219047Y-71254819D02*
X150980952Y-71254819D01*
X150980952Y-71254819D02*
X150885714Y-71302438D01*
X150885714Y-71302438D02*
X150838095Y-71350057D01*
X150838095Y-71350057D02*
X150790476Y-71445295D01*
X150790476Y-71445295D02*
X150790476Y-71540533D01*
X150790476Y-71540533D02*
X150838095Y-71683390D01*
X150838095Y-71683390D02*
X151409523Y-72254819D01*
X151409523Y-72254819D02*
X150790476Y-72254819D01*
X150219047Y-71683390D02*
X150314285Y-71635771D01*
X150314285Y-71635771D02*
X150361904Y-71588152D01*
X150361904Y-71588152D02*
X150409523Y-71492914D01*
X150409523Y-71492914D02*
X150409523Y-71445295D01*
X150409523Y-71445295D02*
X150361904Y-71350057D01*
X150361904Y-71350057D02*
X150314285Y-71302438D01*
X150314285Y-71302438D02*
X150219047Y-71254819D01*
X150219047Y-71254819D02*
X150028571Y-71254819D01*
X150028571Y-71254819D02*
X149933333Y-71302438D01*
X149933333Y-71302438D02*
X149885714Y-71350057D01*
X149885714Y-71350057D02*
X149838095Y-71445295D01*
X149838095Y-71445295D02*
X149838095Y-71492914D01*
X149838095Y-71492914D02*
X149885714Y-71588152D01*
X149885714Y-71588152D02*
X149933333Y-71635771D01*
X149933333Y-71635771D02*
X150028571Y-71683390D01*
X150028571Y-71683390D02*
X150219047Y-71683390D01*
X150219047Y-71683390D02*
X150314285Y-71731009D01*
X150314285Y-71731009D02*
X150361904Y-71778628D01*
X150361904Y-71778628D02*
X150409523Y-71873866D01*
X150409523Y-71873866D02*
X150409523Y-72064342D01*
X150409523Y-72064342D02*
X150361904Y-72159580D01*
X150361904Y-72159580D02*
X150314285Y-72207200D01*
X150314285Y-72207200D02*
X150219047Y-72254819D01*
X150219047Y-72254819D02*
X150028571Y-72254819D01*
X150028571Y-72254819D02*
X149933333Y-72207200D01*
X149933333Y-72207200D02*
X149885714Y-72159580D01*
X149885714Y-72159580D02*
X149838095Y-72064342D01*
X149838095Y-72064342D02*
X149838095Y-71873866D01*
X149838095Y-71873866D02*
X149885714Y-71778628D01*
X149885714Y-71778628D02*
X149933333Y-71731009D01*
X149933333Y-71731009D02*
X150028571Y-71683390D01*
X143714285Y-72054819D02*
X143714285Y-71054819D01*
X143714285Y-71054819D02*
X143476190Y-71054819D01*
X143476190Y-71054819D02*
X143333333Y-71102438D01*
X143333333Y-71102438D02*
X143238095Y-71197676D01*
X143238095Y-71197676D02*
X143190476Y-71292914D01*
X143190476Y-71292914D02*
X143142857Y-71483390D01*
X143142857Y-71483390D02*
X143142857Y-71626247D01*
X143142857Y-71626247D02*
X143190476Y-71816723D01*
X143190476Y-71816723D02*
X143238095Y-71911961D01*
X143238095Y-71911961D02*
X143333333Y-72007200D01*
X143333333Y-72007200D02*
X143476190Y-72054819D01*
X143476190Y-72054819D02*
X143714285Y-72054819D01*
X142761904Y-71150057D02*
X142714285Y-71102438D01*
X142714285Y-71102438D02*
X142619047Y-71054819D01*
X142619047Y-71054819D02*
X142380952Y-71054819D01*
X142380952Y-71054819D02*
X142285714Y-71102438D01*
X142285714Y-71102438D02*
X142238095Y-71150057D01*
X142238095Y-71150057D02*
X142190476Y-71245295D01*
X142190476Y-71245295D02*
X142190476Y-71340533D01*
X142190476Y-71340533D02*
X142238095Y-71483390D01*
X142238095Y-71483390D02*
X142809523Y-72054819D01*
X142809523Y-72054819D02*
X142190476Y-72054819D01*
X141857142Y-71054819D02*
X141190476Y-71054819D01*
X141190476Y-71054819D02*
X141619047Y-72054819D01*
X130369921Y-77954819D02*
X130703254Y-77478628D01*
X130941349Y-77954819D02*
X130941349Y-76954819D01*
X130941349Y-76954819D02*
X130560397Y-76954819D01*
X130560397Y-76954819D02*
X130465159Y-77002438D01*
X130465159Y-77002438D02*
X130417540Y-77050057D01*
X130417540Y-77050057D02*
X130369921Y-77145295D01*
X130369921Y-77145295D02*
X130369921Y-77288152D01*
X130369921Y-77288152D02*
X130417540Y-77383390D01*
X130417540Y-77383390D02*
X130465159Y-77431009D01*
X130465159Y-77431009D02*
X130560397Y-77478628D01*
X130560397Y-77478628D02*
X130941349Y-77478628D01*
X129988968Y-77050057D02*
X129941349Y-77002438D01*
X129941349Y-77002438D02*
X129846111Y-76954819D01*
X129846111Y-76954819D02*
X129608016Y-76954819D01*
X129608016Y-76954819D02*
X129512778Y-77002438D01*
X129512778Y-77002438D02*
X129465159Y-77050057D01*
X129465159Y-77050057D02*
X129417540Y-77145295D01*
X129417540Y-77145295D02*
X129417540Y-77240533D01*
X129417540Y-77240533D02*
X129465159Y-77383390D01*
X129465159Y-77383390D02*
X130036587Y-77954819D01*
X130036587Y-77954819D02*
X129417540Y-77954819D01*
X128560397Y-77288152D02*
X128560397Y-77954819D01*
X128798492Y-76907200D02*
X129036587Y-77621485D01*
X129036587Y-77621485D02*
X128417540Y-77621485D01*
X110914285Y-71854819D02*
X110914285Y-70854819D01*
X110914285Y-70854819D02*
X110676190Y-70854819D01*
X110676190Y-70854819D02*
X110533333Y-70902438D01*
X110533333Y-70902438D02*
X110438095Y-70997676D01*
X110438095Y-70997676D02*
X110390476Y-71092914D01*
X110390476Y-71092914D02*
X110342857Y-71283390D01*
X110342857Y-71283390D02*
X110342857Y-71426247D01*
X110342857Y-71426247D02*
X110390476Y-71616723D01*
X110390476Y-71616723D02*
X110438095Y-71711961D01*
X110438095Y-71711961D02*
X110533333Y-71807200D01*
X110533333Y-71807200D02*
X110676190Y-71854819D01*
X110676190Y-71854819D02*
X110914285Y-71854819D01*
X109390476Y-71854819D02*
X109961904Y-71854819D01*
X109676190Y-71854819D02*
X109676190Y-70854819D01*
X109676190Y-70854819D02*
X109771428Y-70997676D01*
X109771428Y-70997676D02*
X109866666Y-71092914D01*
X109866666Y-71092914D02*
X109961904Y-71140533D01*
X109057142Y-70854819D02*
X108438095Y-70854819D01*
X108438095Y-70854819D02*
X108771428Y-71235771D01*
X108771428Y-71235771D02*
X108628571Y-71235771D01*
X108628571Y-71235771D02*
X108533333Y-71283390D01*
X108533333Y-71283390D02*
X108485714Y-71331009D01*
X108485714Y-71331009D02*
X108438095Y-71426247D01*
X108438095Y-71426247D02*
X108438095Y-71664342D01*
X108438095Y-71664342D02*
X108485714Y-71759580D01*
X108485714Y-71759580D02*
X108533333Y-71807200D01*
X108533333Y-71807200D02*
X108628571Y-71854819D01*
X108628571Y-71854819D02*
X108914285Y-71854819D01*
X108914285Y-71854819D02*
X109009523Y-71807200D01*
X109009523Y-71807200D02*
X109057142Y-71759580D01*
X70387285Y-90959819D02*
X70387285Y-89959819D01*
X70387285Y-89959819D02*
X70149190Y-89959819D01*
X70149190Y-89959819D02*
X70006333Y-90007438D01*
X70006333Y-90007438D02*
X69911095Y-90102676D01*
X69911095Y-90102676D02*
X69863476Y-90197914D01*
X69863476Y-90197914D02*
X69815857Y-90388390D01*
X69815857Y-90388390D02*
X69815857Y-90531247D01*
X69815857Y-90531247D02*
X69863476Y-90721723D01*
X69863476Y-90721723D02*
X69911095Y-90816961D01*
X69911095Y-90816961D02*
X70006333Y-90912200D01*
X70006333Y-90912200D02*
X70149190Y-90959819D01*
X70149190Y-90959819D02*
X70387285Y-90959819D01*
X68863476Y-90959819D02*
X69434904Y-90959819D01*
X69149190Y-90959819D02*
X69149190Y-89959819D01*
X69149190Y-89959819D02*
X69244428Y-90102676D01*
X69244428Y-90102676D02*
X69339666Y-90197914D01*
X69339666Y-90197914D02*
X69434904Y-90245533D01*
X68387285Y-90959819D02*
X68196809Y-90959819D01*
X68196809Y-90959819D02*
X68101571Y-90912200D01*
X68101571Y-90912200D02*
X68053952Y-90864580D01*
X68053952Y-90864580D02*
X67958714Y-90721723D01*
X67958714Y-90721723D02*
X67911095Y-90531247D01*
X67911095Y-90531247D02*
X67911095Y-90150295D01*
X67911095Y-90150295D02*
X67958714Y-90055057D01*
X67958714Y-90055057D02*
X68006333Y-90007438D01*
X68006333Y-90007438D02*
X68101571Y-89959819D01*
X68101571Y-89959819D02*
X68292047Y-89959819D01*
X68292047Y-89959819D02*
X68387285Y-90007438D01*
X68387285Y-90007438D02*
X68434904Y-90055057D01*
X68434904Y-90055057D02*
X68482523Y-90150295D01*
X68482523Y-90150295D02*
X68482523Y-90388390D01*
X68482523Y-90388390D02*
X68434904Y-90483628D01*
X68434904Y-90483628D02*
X68387285Y-90531247D01*
X68387285Y-90531247D02*
X68292047Y-90578866D01*
X68292047Y-90578866D02*
X68101571Y-90578866D01*
X68101571Y-90578866D02*
X68006333Y-90531247D01*
X68006333Y-90531247D02*
X67958714Y-90483628D01*
X67958714Y-90483628D02*
X67911095Y-90388390D01*
X70338094Y-71954819D02*
X70338094Y-70954819D01*
X70338094Y-70954819D02*
X70099999Y-70954819D01*
X70099999Y-70954819D02*
X69957142Y-71002438D01*
X69957142Y-71002438D02*
X69861904Y-71097676D01*
X69861904Y-71097676D02*
X69814285Y-71192914D01*
X69814285Y-71192914D02*
X69766666Y-71383390D01*
X69766666Y-71383390D02*
X69766666Y-71526247D01*
X69766666Y-71526247D02*
X69814285Y-71716723D01*
X69814285Y-71716723D02*
X69861904Y-71811961D01*
X69861904Y-71811961D02*
X69957142Y-71907200D01*
X69957142Y-71907200D02*
X70099999Y-71954819D01*
X70099999Y-71954819D02*
X70338094Y-71954819D01*
X69433332Y-70954819D02*
X68766666Y-70954819D01*
X68766666Y-70954819D02*
X69195237Y-71954819D01*
X122069921Y-77954819D02*
X122403254Y-77478628D01*
X122641349Y-77954819D02*
X122641349Y-76954819D01*
X122641349Y-76954819D02*
X122260397Y-76954819D01*
X122260397Y-76954819D02*
X122165159Y-77002438D01*
X122165159Y-77002438D02*
X122117540Y-77050057D01*
X122117540Y-77050057D02*
X122069921Y-77145295D01*
X122069921Y-77145295D02*
X122069921Y-77288152D01*
X122069921Y-77288152D02*
X122117540Y-77383390D01*
X122117540Y-77383390D02*
X122165159Y-77431009D01*
X122165159Y-77431009D02*
X122260397Y-77478628D01*
X122260397Y-77478628D02*
X122641349Y-77478628D01*
X121117540Y-77954819D02*
X121688968Y-77954819D01*
X121403254Y-77954819D02*
X121403254Y-76954819D01*
X121403254Y-76954819D02*
X121498492Y-77097676D01*
X121498492Y-77097676D02*
X121593730Y-77192914D01*
X121593730Y-77192914D02*
X121688968Y-77240533D01*
X120641349Y-77954819D02*
X120450873Y-77954819D01*
X120450873Y-77954819D02*
X120355635Y-77907200D01*
X120355635Y-77907200D02*
X120308016Y-77859580D01*
X120308016Y-77859580D02*
X120212778Y-77716723D01*
X120212778Y-77716723D02*
X120165159Y-77526247D01*
X120165159Y-77526247D02*
X120165159Y-77145295D01*
X120165159Y-77145295D02*
X120212778Y-77050057D01*
X120212778Y-77050057D02*
X120260397Y-77002438D01*
X120260397Y-77002438D02*
X120355635Y-76954819D01*
X120355635Y-76954819D02*
X120546111Y-76954819D01*
X120546111Y-76954819D02*
X120641349Y-77002438D01*
X120641349Y-77002438D02*
X120688968Y-77050057D01*
X120688968Y-77050057D02*
X120736587Y-77145295D01*
X120736587Y-77145295D02*
X120736587Y-77383390D01*
X120736587Y-77383390D02*
X120688968Y-77478628D01*
X120688968Y-77478628D02*
X120641349Y-77526247D01*
X120641349Y-77526247D02*
X120546111Y-77573866D01*
X120546111Y-77573866D02*
X120355635Y-77573866D01*
X120355635Y-77573866D02*
X120260397Y-77526247D01*
X120260397Y-77526247D02*
X120212778Y-77478628D01*
X120212778Y-77478628D02*
X120165159Y-77383390D01*
X114809523Y-70754819D02*
X114809523Y-71469104D01*
X114809523Y-71469104D02*
X114857142Y-71611961D01*
X114857142Y-71611961D02*
X114952380Y-71707200D01*
X114952380Y-71707200D02*
X115095237Y-71754819D01*
X115095237Y-71754819D02*
X115190475Y-71754819D01*
X114333332Y-71754819D02*
X114333332Y-70754819D01*
X114333332Y-70754819D02*
X113952380Y-70754819D01*
X113952380Y-70754819D02*
X113857142Y-70802438D01*
X113857142Y-70802438D02*
X113809523Y-70850057D01*
X113809523Y-70850057D02*
X113761904Y-70945295D01*
X113761904Y-70945295D02*
X113761904Y-71088152D01*
X113761904Y-71088152D02*
X113809523Y-71183390D01*
X113809523Y-71183390D02*
X113857142Y-71231009D01*
X113857142Y-71231009D02*
X113952380Y-71278628D01*
X113952380Y-71278628D02*
X114333332Y-71278628D01*
X112809523Y-71754819D02*
X113380951Y-71754819D01*
X113095237Y-71754819D02*
X113095237Y-70754819D01*
X113095237Y-70754819D02*
X113190475Y-70897676D01*
X113190475Y-70897676D02*
X113285713Y-70992914D01*
X113285713Y-70992914D02*
X113380951Y-71040533D01*
X112428570Y-70850057D02*
X112380951Y-70802438D01*
X112380951Y-70802438D02*
X112285713Y-70754819D01*
X112285713Y-70754819D02*
X112047618Y-70754819D01*
X112047618Y-70754819D02*
X111952380Y-70802438D01*
X111952380Y-70802438D02*
X111904761Y-70850057D01*
X111904761Y-70850057D02*
X111857142Y-70945295D01*
X111857142Y-70945295D02*
X111857142Y-71040533D01*
X111857142Y-71040533D02*
X111904761Y-71183390D01*
X111904761Y-71183390D02*
X112476189Y-71754819D01*
X112476189Y-71754819D02*
X111857142Y-71754819D01*
D11*
%TO.C,JP6*%
X74900000Y-74100000D02*
X74900000Y-72100000D01*
X74900000Y-72100000D02*
X70800000Y-72100000D01*
X74450000Y-74600000D02*
X73850000Y-74600000D01*
X74150000Y-74300000D02*
X74450000Y-74600000D01*
X74150000Y-74300000D02*
X73850000Y-74600000D01*
X70800000Y-74100000D02*
X74900000Y-74100000D01*
X70800000Y-72100000D02*
X70800000Y-74100000D01*
%TO.C,JP17*%
X123427064Y-74150000D02*
X123427064Y-72150000D01*
X123427064Y-72150000D02*
X119327064Y-72150000D01*
X122977064Y-74650000D02*
X122377064Y-74650000D01*
X122677064Y-74350000D02*
X122977064Y-74650000D01*
X122677064Y-74350000D02*
X122377064Y-74650000D01*
X119327064Y-74150000D02*
X123427064Y-74150000D01*
X119327064Y-72150000D02*
X119327064Y-74150000D01*
%TO.C,R28*%
X147054128Y-76660000D02*
X145600000Y-76660000D01*
X147054128Y-74840000D02*
X145600000Y-74840000D01*
%TO.C,R21*%
X75422936Y-85290000D02*
X76877064Y-85290000D01*
X75422936Y-87110000D02*
X76877064Y-87110000D01*
%TO.C,D18*%
X116800000Y-76610000D02*
X116800000Y-72750000D01*
X118800000Y-76610000D02*
X116800000Y-76610000D01*
X118800000Y-76610000D02*
X118800000Y-72750000D01*
%TO.C,D23*%
X125027064Y-76360000D02*
X125027064Y-72500000D01*
X127027064Y-76360000D02*
X125027064Y-76360000D01*
X127027064Y-76360000D02*
X127027064Y-72500000D01*
%TO.C,JP11*%
X107550000Y-74100000D02*
X107550000Y-72100000D01*
X107550000Y-72100000D02*
X103450000Y-72100000D01*
X107100000Y-74600000D02*
X106500000Y-74600000D01*
X106800000Y-74300000D02*
X107100000Y-74600000D01*
X106800000Y-74300000D02*
X106500000Y-74600000D01*
X103450000Y-74100000D02*
X107550000Y-74100000D01*
X103450000Y-72100000D02*
X103450000Y-74100000D01*
%TO.C,R26*%
X138754128Y-76560000D02*
X137300000Y-76560000D01*
X138754128Y-74740000D02*
X137300000Y-74740000D01*
%TO.C,D20*%
X78410000Y-89600000D02*
X74550000Y-89600000D01*
X78410000Y-87600000D02*
X78410000Y-89600000D01*
X78410000Y-87600000D02*
X74550000Y-87600000D01*
%TO.C,JP8*%
X82950000Y-74000000D02*
X82950000Y-72000000D01*
X82950000Y-72000000D02*
X78850000Y-72000000D01*
X82500000Y-74500000D02*
X81900000Y-74500000D01*
X82200000Y-74200000D02*
X82500000Y-74500000D01*
X82200000Y-74200000D02*
X81900000Y-74500000D01*
X78850000Y-74000000D02*
X82950000Y-74000000D01*
X78850000Y-72000000D02*
X78850000Y-74000000D01*
%TO.C,D10*%
X84500000Y-76410000D02*
X84500000Y-72550000D01*
X86500000Y-76410000D02*
X84500000Y-76410000D01*
X86500000Y-76410000D02*
X86500000Y-72550000D01*
%TO.C,JP26*%
X148377064Y-74200000D02*
X148377064Y-72200000D01*
X148377064Y-72200000D02*
X144277064Y-72200000D01*
X147927064Y-74700000D02*
X147327064Y-74700000D01*
X147627064Y-74400000D02*
X147927064Y-74700000D01*
X147627064Y-74400000D02*
X147327064Y-74700000D01*
X144277064Y-74200000D02*
X148377064Y-74200000D01*
X144277064Y-72200000D02*
X144277064Y-74200000D01*
%TO.C,R14*%
X114477064Y-76510000D02*
X113022936Y-76510000D01*
X114477064Y-74690000D02*
X113022936Y-74690000D01*
%TO.C,R20*%
X69877064Y-87110000D02*
X68422936Y-87110000D01*
X69877064Y-85290000D02*
X68422936Y-85290000D01*
%TO.C,R12*%
X98177064Y-76510000D02*
X96722936Y-76510000D01*
X98177064Y-74690000D02*
X96722936Y-74690000D01*
%TO.C,JP19*%
X74250000Y-82600000D02*
X74250000Y-84600000D01*
X74250000Y-84600000D02*
X78350000Y-84600000D01*
X74700000Y-82100000D02*
X75300000Y-82100000D01*
X75000000Y-82400000D02*
X74700000Y-82100000D01*
X75000000Y-82400000D02*
X75300000Y-82100000D01*
X78350000Y-82600000D02*
X74250000Y-82600000D01*
X78350000Y-84600000D02*
X78350000Y-82600000D01*
%TO.C,JP18*%
X71150000Y-84600000D02*
X71150000Y-82600000D01*
X71150000Y-82600000D02*
X67050000Y-82600000D01*
X70700000Y-85100000D02*
X70100000Y-85100000D01*
X70400000Y-84800000D02*
X70700000Y-85100000D01*
X70400000Y-84800000D02*
X70100000Y-85100000D01*
X67050000Y-84600000D02*
X71150000Y-84600000D01*
X67050000Y-82600000D02*
X67050000Y-84600000D01*
%TO.C,JP10*%
X99450000Y-74100000D02*
X99450000Y-72100000D01*
X99450000Y-72100000D02*
X95350000Y-72100000D01*
X99000000Y-74600000D02*
X98400000Y-74600000D01*
X98700000Y-74300000D02*
X99000000Y-74600000D01*
X98700000Y-74300000D02*
X98400000Y-74600000D01*
X95350000Y-74100000D02*
X99450000Y-74100000D01*
X95350000Y-72100000D02*
X95350000Y-74100000D01*
%TO.C,JP22*%
X131827064Y-74150000D02*
X131827064Y-72150000D01*
X131827064Y-72150000D02*
X127727064Y-72150000D01*
X131377064Y-74650000D02*
X130777064Y-74650000D01*
X131077064Y-74350000D02*
X131377064Y-74650000D01*
X131077064Y-74350000D02*
X130777064Y-74650000D01*
X127727064Y-74150000D02*
X131827064Y-74150000D01*
X127727064Y-72150000D02*
X127727064Y-74150000D01*
%TO.C,R11*%
X89977064Y-76510000D02*
X88522936Y-76510000D01*
X89977064Y-74690000D02*
X88522936Y-74690000D01*
%TO.C,D9*%
X76150000Y-76560000D02*
X76150000Y-72700000D01*
X78150000Y-76560000D02*
X76150000Y-76560000D01*
X78150000Y-76560000D02*
X78150000Y-72700000D01*
%TO.C,D25*%
X133227064Y-76360000D02*
X133227064Y-72500000D01*
X135227064Y-76360000D02*
X133227064Y-76360000D01*
X135227064Y-76360000D02*
X135227064Y-72500000D01*
%TO.C,R29*%
X155604128Y-76860000D02*
X154150000Y-76860000D01*
X155604128Y-75040000D02*
X154150000Y-75040000D01*
%TO.C,JP27*%
X156927064Y-74500000D02*
X156927064Y-72500000D01*
X156927064Y-72500000D02*
X152827064Y-72500000D01*
X156477064Y-75000000D02*
X155877064Y-75000000D01*
X156177064Y-74700000D02*
X156477064Y-75000000D01*
X156177064Y-74700000D02*
X155877064Y-75000000D01*
X152827064Y-74500000D02*
X156927064Y-74500000D01*
X152827064Y-72500000D02*
X152827064Y-74500000D01*
%TO.C,D11*%
X92700000Y-76310000D02*
X92700000Y-72450000D01*
X94700000Y-76310000D02*
X92700000Y-76310000D01*
X94700000Y-76310000D02*
X94700000Y-72450000D01*
%TO.C,R13*%
X106427064Y-76510000D02*
X104972936Y-76510000D01*
X106427064Y-74690000D02*
X104972936Y-74690000D01*
%TO.C,JP24*%
X140077064Y-74150000D02*
X140077064Y-72150000D01*
X140077064Y-72150000D02*
X135977064Y-72150000D01*
X139627064Y-74650000D02*
X139027064Y-74650000D01*
X139327064Y-74350000D02*
X139627064Y-74650000D01*
X139327064Y-74350000D02*
X139027064Y-74650000D01*
X135977064Y-74150000D02*
X140077064Y-74150000D01*
X135977064Y-72150000D02*
X135977064Y-74150000D01*
%TO.C,JP9*%
X91217000Y-73984000D02*
X91217000Y-71984000D01*
X91217000Y-71984000D02*
X87117000Y-71984000D01*
X90767000Y-74484000D02*
X90167000Y-74484000D01*
X90467000Y-74184000D02*
X90767000Y-74484000D01*
X90467000Y-74184000D02*
X90167000Y-74484000D01*
X87117000Y-73984000D02*
X91217000Y-73984000D01*
X87117000Y-71984000D02*
X87117000Y-73984000D01*
%TO.C,D12*%
X100800000Y-76410000D02*
X100800000Y-72550000D01*
X102800000Y-76410000D02*
X100800000Y-76410000D01*
X102800000Y-76410000D02*
X102800000Y-72550000D01*
%TO.C,R10*%
X81827064Y-76410000D02*
X80372936Y-76410000D01*
X81827064Y-74590000D02*
X80372936Y-74590000D01*
%TO.C,R8*%
X73727064Y-76510000D02*
X72272936Y-76510000D01*
X73727064Y-74690000D02*
X72272936Y-74690000D01*
%TO.C,D28*%
X150177064Y-76810000D02*
X150177064Y-72950000D01*
X152177064Y-76810000D02*
X150177064Y-76810000D01*
X152177064Y-76810000D02*
X152177064Y-72950000D01*
%TO.C,D27*%
X141627064Y-76610000D02*
X141627064Y-72750000D01*
X143627064Y-76610000D02*
X141627064Y-76610000D01*
X143627064Y-76610000D02*
X143627064Y-72750000D01*
%TO.C,R24*%
X130454128Y-76560000D02*
X129000000Y-76560000D01*
X130454128Y-74740000D02*
X129000000Y-74740000D01*
%TO.C,D13*%
X108800000Y-76410000D02*
X108800000Y-72550000D01*
X110800000Y-76410000D02*
X108800000Y-76410000D01*
X110800000Y-76410000D02*
X110800000Y-72550000D01*
%TO.C,D19*%
X67090000Y-87600000D02*
X70950000Y-87600000D01*
X67090000Y-89600000D02*
X67090000Y-87600000D01*
X67090000Y-89600000D02*
X70950000Y-89600000D01*
%TO.C,D7*%
X68300000Y-76560000D02*
X68300000Y-72700000D01*
X70300000Y-76560000D02*
X68300000Y-76560000D01*
X70300000Y-76560000D02*
X70300000Y-72700000D01*
%TO.C,R19*%
X122154128Y-76560000D02*
X120700000Y-76560000D01*
X122154128Y-74740000D02*
X120700000Y-74740000D01*
%TO.C,JP12*%
X115550000Y-74100000D02*
X115550000Y-72100000D01*
X115550000Y-72100000D02*
X111450000Y-72100000D01*
X115100000Y-74600000D02*
X114500000Y-74600000D01*
X114800000Y-74300000D02*
X115100000Y-74600000D01*
X114800000Y-74300000D02*
X114500000Y-74600000D01*
X111450000Y-74100000D02*
X115550000Y-74100000D01*
X111450000Y-72100000D02*
X111450000Y-74100000D01*
%TD*%
M02*
