%TF.GenerationSoftware,KiCad,Pcbnew,7.0.7*%
%TF.CreationDate,2024-08-30T11:48:45-05:00*%
%TF.ProjectId,Module_RPI,4d6f6475-6c65-45f5-9250-492e6b696361,rev?*%
%TF.SameCoordinates,Original*%
%TF.FileFunction,Paste,Bot*%
%TF.FilePolarity,Positive*%
%FSLAX46Y46*%
G04 Gerber Fmt 4.6, Leading zero omitted, Abs format (unit mm)*
G04 Created by KiCad (PCBNEW 7.0.7) date 2024-08-30 11:48:45*
%MOMM*%
%LPD*%
G01*
G04 APERTURE LIST*
G04 Aperture macros list*
%AMRoundRect*
0 Rectangle with rounded corners*
0 $1 Rounding radius*
0 $2 $3 $4 $5 $6 $7 $8 $9 X,Y pos of 4 corners*
0 Add a 4 corners polygon primitive as box body*
4,1,4,$2,$3,$4,$5,$6,$7,$8,$9,$2,$3,0*
0 Add four circle primitives for the rounded corners*
1,1,$1+$1,$2,$3*
1,1,$1+$1,$4,$5*
1,1,$1+$1,$6,$7*
1,1,$1+$1,$8,$9*
0 Add four rect primitives between the rounded corners*
20,1,$1+$1,$2,$3,$4,$5,0*
20,1,$1+$1,$4,$5,$6,$7,0*
20,1,$1+$1,$6,$7,$8,$9,0*
20,1,$1+$1,$8,$9,$2,$3,0*%
G04 Aperture macros list end*
%ADD10RoundRect,0.250000X0.400000X0.625000X-0.400000X0.625000X-0.400000X-0.625000X0.400000X-0.625000X0*%
%ADD11RoundRect,0.250000X-0.400000X-0.625000X0.400000X-0.625000X0.400000X0.625000X-0.400000X0.625000X0*%
%ADD12RoundRect,0.250000X0.300000X-0.300000X0.300000X0.300000X-0.300000X0.300000X-0.300000X-0.300000X0*%
%ADD13RoundRect,0.250000X0.300000X0.300000X-0.300000X0.300000X-0.300000X-0.300000X0.300000X-0.300000X0*%
%ADD14RoundRect,0.250000X-0.300000X-0.300000X0.300000X-0.300000X0.300000X0.300000X-0.300000X0.300000X0*%
G04 APERTURE END LIST*
D10*
%TO.C,R28*%
X147877064Y-75750000D03*
X144777064Y-75750000D03*
%TD*%
D11*
%TO.C,R21*%
X74600000Y-86200000D03*
X77700000Y-86200000D03*
%TD*%
D12*
%TO.C,D18*%
X117800000Y-75800000D03*
X117800000Y-73000000D03*
%TD*%
%TO.C,D23*%
X126027064Y-75550000D03*
X126027064Y-72750000D03*
%TD*%
D10*
%TO.C,R26*%
X139577064Y-75650000D03*
X136477064Y-75650000D03*
%TD*%
D13*
%TO.C,D20*%
X77600000Y-88600000D03*
X74800000Y-88600000D03*
%TD*%
D12*
%TO.C,D10*%
X85500000Y-75600000D03*
X85500000Y-72800000D03*
%TD*%
D10*
%TO.C,R14*%
X115300000Y-75600000D03*
X112200000Y-75600000D03*
%TD*%
%TO.C,R20*%
X70700000Y-86200000D03*
X67600000Y-86200000D03*
%TD*%
%TO.C,R12*%
X99000000Y-75600000D03*
X95900000Y-75600000D03*
%TD*%
%TO.C,R11*%
X90800000Y-75600000D03*
X87700000Y-75600000D03*
%TD*%
D12*
%TO.C,D9*%
X77150000Y-75750000D03*
X77150000Y-72950000D03*
%TD*%
%TO.C,D25*%
X134227064Y-75550000D03*
X134227064Y-72750000D03*
%TD*%
D10*
%TO.C,R29*%
X156427064Y-75950000D03*
X153327064Y-75950000D03*
%TD*%
D12*
%TO.C,D11*%
X93700000Y-75500000D03*
X93700000Y-72700000D03*
%TD*%
D10*
%TO.C,R13*%
X107250000Y-75600000D03*
X104150000Y-75600000D03*
%TD*%
D12*
%TO.C,D12*%
X101800000Y-75600000D03*
X101800000Y-72800000D03*
%TD*%
D10*
%TO.C,R10*%
X82650000Y-75500000D03*
X79550000Y-75500000D03*
%TD*%
%TO.C,R8*%
X74550000Y-75600000D03*
X71450000Y-75600000D03*
%TD*%
D12*
%TO.C,D28*%
X151177064Y-76000000D03*
X151177064Y-73200000D03*
%TD*%
%TO.C,D27*%
X142627064Y-75800000D03*
X142627064Y-73000000D03*
%TD*%
D10*
%TO.C,R24*%
X131277064Y-75650000D03*
X128177064Y-75650000D03*
%TD*%
D12*
%TO.C,D13*%
X109800000Y-75600000D03*
X109800000Y-72800000D03*
%TD*%
D14*
%TO.C,D19*%
X67900000Y-88600000D03*
X70700000Y-88600000D03*
%TD*%
D12*
%TO.C,D7*%
X69300000Y-75750000D03*
X69300000Y-72950000D03*
%TD*%
D10*
%TO.C,R19*%
X122977064Y-75650000D03*
X119877064Y-75650000D03*
%TD*%
M02*
