%TF.GenerationSoftware,KiCad,Pcbnew,7.0.7*%
%TF.CreationDate,2024-08-30T11:48:46-05:00*%
%TF.ProjectId,Module_RPI,4d6f6475-6c65-45f5-9250-492e6b696361,rev?*%
%TF.SameCoordinates,Original*%
%TF.FileFunction,Soldermask,Bot*%
%TF.FilePolarity,Negative*%
%FSLAX46Y46*%
G04 Gerber Fmt 4.6, Leading zero omitted, Abs format (unit mm)*
G04 Created by KiCad (PCBNEW 7.0.7) date 2024-08-30 11:48:46*
%MOMM*%
%LPD*%
G01*
G04 APERTURE LIST*
G04 Aperture macros list*
%AMRoundRect*
0 Rectangle with rounded corners*
0 $1 Rounding radius*
0 $2 $3 $4 $5 $6 $7 $8 $9 X,Y pos of 4 corners*
0 Add a 4 corners polygon primitive as box body*
4,1,4,$2,$3,$4,$5,$6,$7,$8,$9,$2,$3,0*
0 Add four circle primitives for the rounded corners*
1,1,$1+$1,$2,$3*
1,1,$1+$1,$4,$5*
1,1,$1+$1,$6,$7*
1,1,$1+$1,$8,$9*
0 Add four rect primitives between the rounded corners*
20,1,$1+$1,$2,$3,$4,$5,0*
20,1,$1+$1,$4,$5,$6,$7,0*
20,1,$1+$1,$6,$7,$8,$9,0*
20,1,$1+$1,$8,$9,$2,$3,0*%
G04 Aperture macros list end*
%ADD10RoundRect,0.250000X0.620000X0.845000X-0.620000X0.845000X-0.620000X-0.845000X0.620000X-0.845000X0*%
%ADD11O,1.740000X2.190000*%
%ADD12C,6.404000*%
%ADD13R,1.700000X1.700000*%
%ADD14O,1.700000X1.700000*%
%ADD15RoundRect,0.102000X-0.762000X-0.762000X0.762000X-0.762000X0.762000X0.762000X-0.762000X0.762000X0*%
%ADD16C,1.728000*%
%ADD17R,1.000000X1.500000*%
%ADD18RoundRect,0.250000X0.400000X0.625000X-0.400000X0.625000X-0.400000X-0.625000X0.400000X-0.625000X0*%
%ADD19RoundRect,0.250000X-0.400000X-0.625000X0.400000X-0.625000X0.400000X0.625000X-0.400000X0.625000X0*%
%ADD20RoundRect,0.250000X0.300000X-0.300000X0.300000X0.300000X-0.300000X0.300000X-0.300000X-0.300000X0*%
%ADD21RoundRect,0.250000X0.300000X0.300000X-0.300000X0.300000X-0.300000X-0.300000X0.300000X-0.300000X0*%
%ADD22RoundRect,0.250000X-0.300000X-0.300000X0.300000X-0.300000X0.300000X0.300000X-0.300000X0.300000X0*%
G04 APERTURE END LIST*
D10*
%TO.C,GPIO16*%
X146426000Y-130600000D03*
D11*
X143886000Y-130600000D03*
%TD*%
D10*
%TO.C,3.3V1*%
X156477500Y-122300000D03*
D11*
X153937500Y-122300000D03*
%TD*%
D10*
%TO.C,3.3V2*%
X149387500Y-122300000D03*
D11*
X146847500Y-122300000D03*
%TD*%
D10*
%TO.C,5V2*%
X142297500Y-122300000D03*
D11*
X139757500Y-122300000D03*
%TD*%
D12*
%TO.C,*%
X54000000Y-62511000D03*
%TD*%
D10*
%TO.C,GPIO22*%
X131654000Y-130600000D03*
D11*
X129114000Y-130600000D03*
%TD*%
D10*
%TO.C,5V1*%
X135207500Y-122280000D03*
D11*
X132667500Y-122280000D03*
%TD*%
D12*
%TO.C,*%
X97580000Y-62511000D03*
X155580000Y-62511000D03*
X155580000Y-111511000D03*
X97580000Y-111511000D03*
%TD*%
D10*
%TO.C,GPIO28*%
X109496000Y-130780000D03*
D11*
X106956000Y-130780000D03*
%TD*%
D10*
%TO.C,GPIO29*%
X102040000Y-123930000D03*
D11*
X99500000Y-123930000D03*
X96960000Y-123930000D03*
%TD*%
D10*
%TO.C,GPIO18*%
X139040000Y-130600000D03*
D11*
X136500000Y-130600000D03*
%TD*%
D10*
%TO.C,GPIO24*%
X124268000Y-130600000D03*
D11*
X121728000Y-130600000D03*
%TD*%
D13*
%TO.C,J2*%
X63600000Y-130750000D03*
D14*
X63600000Y-128210000D03*
X63600000Y-125670000D03*
X63600000Y-123130000D03*
X63600000Y-120590000D03*
X63600000Y-118050000D03*
X63600000Y-115510000D03*
X63600000Y-112970000D03*
X63600000Y-110430000D03*
X63600000Y-107890000D03*
X63600000Y-105350000D03*
X63600000Y-102810000D03*
X63600000Y-100270000D03*
X63600000Y-97730000D03*
X63600000Y-95190000D03*
X63600000Y-92650000D03*
X63600000Y-90110000D03*
X63600000Y-87570000D03*
X63600000Y-85030000D03*
X63600000Y-82490000D03*
%TD*%
D13*
%TO.C,J4*%
X81250000Y-82500000D03*
D14*
X81250000Y-85040000D03*
X81250000Y-87580000D03*
X81250000Y-90120000D03*
X81250000Y-92660000D03*
X81250000Y-95200000D03*
X81250000Y-97740000D03*
X81250000Y-100280000D03*
X81250000Y-102820000D03*
X81250000Y-105360000D03*
X81250000Y-107900000D03*
X81250000Y-110440000D03*
X81250000Y-112980000D03*
X81250000Y-115520000D03*
X81250000Y-118060000D03*
X81250000Y-120600000D03*
X81250000Y-123140000D03*
X81250000Y-125680000D03*
X81250000Y-128220000D03*
X81250000Y-130760000D03*
%TD*%
D15*
%TO.C,U2*%
X102520000Y-84770000D03*
D16*
X102520000Y-82230000D03*
X105060000Y-84770000D03*
X105060000Y-82230000D03*
X107600000Y-84770000D03*
X107600000Y-82230000D03*
X110140000Y-84770000D03*
X110140000Y-82230000D03*
X112680000Y-84770000D03*
X112680000Y-82230000D03*
X115220000Y-84770000D03*
X115220000Y-82230000D03*
X117760000Y-84770000D03*
X117760000Y-82230000D03*
X120300000Y-84770000D03*
X120300000Y-82230000D03*
X122840000Y-84770000D03*
X122840000Y-82230000D03*
X125380000Y-84770000D03*
X125380000Y-82230000D03*
X127920000Y-84770000D03*
X127920000Y-82230000D03*
X130460000Y-84770000D03*
X130460000Y-82230000D03*
X133000000Y-84770000D03*
X133000000Y-82230000D03*
X135540000Y-84770000D03*
X135540000Y-82230000D03*
X138080000Y-84770000D03*
X138080000Y-82230000D03*
X140620000Y-84770000D03*
X140620000Y-82230000D03*
X143160000Y-84770000D03*
X143160000Y-82230000D03*
X145700000Y-84770000D03*
X145700000Y-82230000D03*
X148240000Y-84770000D03*
X148240000Y-82230000D03*
X150780000Y-84770000D03*
X150780000Y-82230000D03*
X156880000Y-90893000D03*
X156880000Y-88353000D03*
X154340000Y-90893000D03*
X154340000Y-88353000D03*
D12*
X97650000Y-83500000D03*
X155650000Y-83500000D03*
X155650000Y-132500000D03*
X97650000Y-132500000D03*
%TD*%
D10*
%TO.C,GPIO26*%
X116882000Y-130680000D03*
D11*
X114342000Y-130680000D03*
%TD*%
D13*
%TO.C,J1_Rele1*%
X102450000Y-63770000D03*
D14*
X102450000Y-61230000D03*
X104990000Y-63770000D03*
X104990000Y-61230000D03*
X107530000Y-63770000D03*
X107530000Y-61230000D03*
X110070000Y-63770000D03*
X110070000Y-61230000D03*
X112610000Y-63770000D03*
X112610000Y-61230000D03*
X115150000Y-63770000D03*
X115150000Y-61230000D03*
X117690000Y-63770000D03*
X117690000Y-61230000D03*
X120230000Y-63770000D03*
X120230000Y-61230000D03*
X122770000Y-63770000D03*
X122770000Y-61230000D03*
X125310000Y-63770000D03*
X125310000Y-61230000D03*
X127850000Y-63770000D03*
X127850000Y-61230000D03*
X130390000Y-63770000D03*
X130390000Y-61230000D03*
X132930000Y-63770000D03*
X132930000Y-61230000D03*
X135470000Y-63770000D03*
X135470000Y-61230000D03*
X138010000Y-63770000D03*
X138010000Y-61230000D03*
X140550000Y-63770000D03*
X140550000Y-61230000D03*
X143090000Y-63770000D03*
X143090000Y-61230000D03*
X145630000Y-63770000D03*
X145630000Y-61230000D03*
X148170000Y-63770000D03*
X148170000Y-61230000D03*
X150710000Y-63770000D03*
X150710000Y-61230000D03*
%TD*%
D17*
%TO.C,JP6*%
X74150000Y-73100000D03*
X72850000Y-73100000D03*
X71550000Y-73100000D03*
%TD*%
%TO.C,JP17*%
X122677064Y-73150000D03*
X121377064Y-73150000D03*
X120077064Y-73150000D03*
%TD*%
D18*
%TO.C,R28*%
X147877064Y-75750000D03*
X144777064Y-75750000D03*
%TD*%
D19*
%TO.C,R21*%
X74600000Y-86200000D03*
X77700000Y-86200000D03*
%TD*%
D20*
%TO.C,D18*%
X117800000Y-75800000D03*
X117800000Y-73000000D03*
%TD*%
%TO.C,D23*%
X126027064Y-75550000D03*
X126027064Y-72750000D03*
%TD*%
D17*
%TO.C,JP11*%
X106800000Y-73100000D03*
X105500000Y-73100000D03*
X104200000Y-73100000D03*
%TD*%
D18*
%TO.C,R26*%
X139577064Y-75650000D03*
X136477064Y-75650000D03*
%TD*%
D21*
%TO.C,D20*%
X77600000Y-88600000D03*
X74800000Y-88600000D03*
%TD*%
D17*
%TO.C,JP8*%
X82200000Y-73000000D03*
X80900000Y-73000000D03*
X79600000Y-73000000D03*
%TD*%
D20*
%TO.C,D10*%
X85500000Y-75600000D03*
X85500000Y-72800000D03*
%TD*%
D17*
%TO.C,JP26*%
X147627064Y-73200000D03*
X146327064Y-73200000D03*
X145027064Y-73200000D03*
%TD*%
D18*
%TO.C,R14*%
X115300000Y-75600000D03*
X112200000Y-75600000D03*
%TD*%
%TO.C,R20*%
X70700000Y-86200000D03*
X67600000Y-86200000D03*
%TD*%
%TO.C,R12*%
X99000000Y-75600000D03*
X95900000Y-75600000D03*
%TD*%
D17*
%TO.C,JP19*%
X75000000Y-83600000D03*
X76300000Y-83600000D03*
X77600000Y-83600000D03*
%TD*%
%TO.C,JP18*%
X70400000Y-83600000D03*
X69100000Y-83600000D03*
X67800000Y-83600000D03*
%TD*%
%TO.C,JP10*%
X98700000Y-73100000D03*
X97400000Y-73100000D03*
X96100000Y-73100000D03*
%TD*%
%TO.C,JP22*%
X131077064Y-73150000D03*
X129777064Y-73150000D03*
X128477064Y-73150000D03*
%TD*%
D18*
%TO.C,R11*%
X90800000Y-75600000D03*
X87700000Y-75600000D03*
%TD*%
D20*
%TO.C,D9*%
X77150000Y-75750000D03*
X77150000Y-72950000D03*
%TD*%
%TO.C,D25*%
X134227064Y-75550000D03*
X134227064Y-72750000D03*
%TD*%
D18*
%TO.C,R29*%
X156427064Y-75950000D03*
X153327064Y-75950000D03*
%TD*%
D17*
%TO.C,JP27*%
X156177064Y-73500000D03*
X154877064Y-73500000D03*
X153577064Y-73500000D03*
%TD*%
D20*
%TO.C,D11*%
X93700000Y-75500000D03*
X93700000Y-72700000D03*
%TD*%
D18*
%TO.C,R13*%
X107250000Y-75600000D03*
X104150000Y-75600000D03*
%TD*%
D17*
%TO.C,JP24*%
X139327064Y-73150000D03*
X138027064Y-73150000D03*
X136727064Y-73150000D03*
%TD*%
%TO.C,JP9*%
X90467000Y-72984000D03*
X89167000Y-72984000D03*
X87867000Y-72984000D03*
%TD*%
D20*
%TO.C,D12*%
X101800000Y-75600000D03*
X101800000Y-72800000D03*
%TD*%
D18*
%TO.C,R10*%
X82650000Y-75500000D03*
X79550000Y-75500000D03*
%TD*%
%TO.C,R8*%
X74550000Y-75600000D03*
X71450000Y-75600000D03*
%TD*%
D20*
%TO.C,D28*%
X151177064Y-76000000D03*
X151177064Y-73200000D03*
%TD*%
%TO.C,D27*%
X142627064Y-75800000D03*
X142627064Y-73000000D03*
%TD*%
D18*
%TO.C,R24*%
X131277064Y-75650000D03*
X128177064Y-75650000D03*
%TD*%
D20*
%TO.C,D13*%
X109800000Y-75600000D03*
X109800000Y-72800000D03*
%TD*%
D22*
%TO.C,D19*%
X67900000Y-88600000D03*
X70700000Y-88600000D03*
%TD*%
D20*
%TO.C,D7*%
X69300000Y-75750000D03*
X69300000Y-72950000D03*
%TD*%
D18*
%TO.C,R19*%
X122977064Y-75650000D03*
X119877064Y-75650000D03*
%TD*%
D17*
%TO.C,JP12*%
X114800000Y-73100000D03*
X113500000Y-73100000D03*
X112200000Y-73100000D03*
%TD*%
M02*
