M48
; DRILL file {KiCad 7.0.7} date Fri Aug 30 11:49:30 2024
; FORMAT={-:-/ absolute / inch / decimal}
; #@! TF.CreationDate,2024-08-30T11:49:30-05:00
; #@! TF.GenerationSoftware,Kicad,Pcbnew,7.0.7
; #@! TF.FileFunction,Plated,1,2,PTH
FMAT,2
INCH
; #@! TA.AperFunction,Plated,PTH,ViaDrill
T1C0.0039
; #@! TA.AperFunction,Plated,PTH,ViaDrill
T2C0.0157
; #@! TA.AperFunction,Plated,PTH,ComponentDrill
T3C0.0394
; #@! TA.AperFunction,Plated,PTH,ComponentDrill
T4C0.0400
; #@! TA.AperFunction,Plated,PTH,ComponentDrill
T5C0.0469
; #@! TA.AperFunction,Plated,PTH,ComponentDrill
T6C0.1083
%
G90
G05
T1
X2.811Y-3.6279
X2.9055Y-2.815
X3.0669Y-2.815
X3.2992Y-2.815
X3.4646Y-2.815
X3.5236Y-2.5118
X3.6063Y-2.815
X3.6654Y-2.5118
X3.7559Y-3.7323
X3.8622Y-2.815
X3.9803Y-3.7323
X4.063Y-3.7323
X4.1181Y-4.1969
X4.2835Y-2.7441
X4.2835Y-3.7323
X4.374Y-3.7323
X4.3858Y-4.1969
X4.4843Y-4.1969
X4.5157Y-4.622
X4.6063Y-3.7323
X4.685Y-2.7795
X4.689Y-4.1969
X4.6969Y-3.7323
X4.7126Y-4.622
X4.8071Y-4.1969
X4.8071Y-4.622
X4.9252Y-3.7323
X4.9646Y-2.8071
X5.0157Y-3.7323
X5.0197Y-4.1969
X5.0236Y-4.622
X5.1181Y-4.1969
X5.2323Y-3.7323
X5.237Y-2.7335
X5.3346Y-3.7323
X5.3465Y-4.1969
X5.4833Y-2.7283
X5.5433Y-3.7323
X5.9335Y-2.8461
T2
X3.0315Y-3.6142
X3.7362Y-4.6457
T3
X2.5039Y-3.2476
X2.5039Y-3.3476
X2.5039Y-3.4476
X2.5039Y-3.5476
X2.5039Y-3.6476
X2.5039Y-3.7476
X2.5039Y-3.8476
X2.5039Y-3.9476
X2.5039Y-4.0476
X2.5039Y-4.1476
X2.5039Y-4.2476
X2.5039Y-4.3476
X2.5039Y-4.4476
X2.5039Y-4.5476
X2.5039Y-4.6476
X2.5039Y-4.7476
X2.5039Y-4.8476
X2.5039Y-4.9476
X2.5039Y-5.0476
X2.5039Y-5.1476
X3.1988Y-3.248
X3.1988Y-3.348
X3.1988Y-3.448
X3.1988Y-3.548
X3.1988Y-3.648
X3.1988Y-3.748
X3.1988Y-3.848
X3.1988Y-3.948
X3.1988Y-4.048
X3.1988Y-4.148
X3.1988Y-4.248
X3.1988Y-4.348
X3.1988Y-4.448
X3.1988Y-4.548
X3.1988Y-4.648
X3.1988Y-4.748
X3.1988Y-4.848
X3.1988Y-4.948
X3.1988Y-5.048
X3.1988Y-5.148
X4.0335Y-2.4106
X4.0335Y-2.5106
X4.1335Y-2.4106
X4.1335Y-2.5106
X4.2335Y-2.4106
X4.2335Y-2.5106
X4.3335Y-2.4106
X4.3335Y-2.5106
X4.4335Y-2.4106
X4.4335Y-2.5106
X4.5335Y-2.4106
X4.5335Y-2.5106
X4.6335Y-2.4106
X4.6335Y-2.5106
X4.7335Y-2.4106
X4.7335Y-2.5106
X4.8335Y-2.4106
X4.8335Y-2.5106
X4.9335Y-2.4106
X4.9335Y-2.5106
X5.0335Y-2.4106
X5.0335Y-2.5106
X5.1335Y-2.4106
X5.1335Y-2.5106
X5.2335Y-2.4106
X5.2335Y-2.5106
X5.3335Y-2.4106
X5.3335Y-2.5106
X5.4335Y-2.4106
X5.4335Y-2.5106
X5.5335Y-2.4106
X5.5335Y-2.5106
X5.6335Y-2.4106
X5.6335Y-2.5106
X5.7335Y-2.4106
X5.7335Y-2.5106
X5.8335Y-2.4106
X5.8335Y-2.5106
X5.9335Y-2.4106
X5.9335Y-2.5106
T4
X4.0362Y-3.2374
X4.0362Y-3.3374
X4.1362Y-3.2374
X4.1362Y-3.3374
X4.2362Y-3.2374
X4.2362Y-3.3374
X4.3362Y-3.2374
X4.3362Y-3.3374
X4.4362Y-3.2374
X4.4362Y-3.3374
X4.5362Y-3.2374
X4.5362Y-3.3374
X4.6362Y-3.2374
X4.6362Y-3.3374
X4.7362Y-3.2374
X4.7362Y-3.3374
X4.8362Y-3.2374
X4.8362Y-3.3374
X4.9362Y-3.2374
X4.9362Y-3.3374
X5.0362Y-3.2374
X5.0362Y-3.3374
X5.1362Y-3.2374
X5.1362Y-3.3374
X5.2362Y-3.2374
X5.2362Y-3.3374
X5.3362Y-3.2374
X5.3362Y-3.3374
X5.4362Y-3.2374
X5.4362Y-3.3374
X5.5362Y-3.2374
X5.5362Y-3.3374
X5.6362Y-3.2374
X5.6362Y-3.3374
X5.7362Y-3.2374
X5.7362Y-3.3374
X5.8362Y-3.2374
X5.8362Y-3.3374
X5.9362Y-3.2374
X5.9362Y-3.3374
X6.0764Y-3.4785
X6.0764Y-3.5785
X6.1764Y-3.4785
X6.1764Y-3.5785
T5
X3.8173Y-4.8791
X3.9173Y-4.8791
X4.0173Y-4.8791
X4.2109Y-5.1488
X4.3109Y-5.1488
X4.5017Y-5.1449
X4.6017Y-5.1449
X4.7924Y-5.1417
X4.8924Y-5.1417
X5.0832Y-5.1417
X5.1832Y-5.1417
X5.2231Y-4.8142
X5.3231Y-4.8142
X5.374Y-5.1417
X5.474Y-5.1417
X5.5023Y-4.815
X5.6023Y-4.815
X5.6648Y-5.1417
X5.7648Y-5.1417
X5.7814Y-4.815
X5.8814Y-4.815
X6.0605Y-4.815
X6.1605Y-4.815
T6
X2.126Y-2.4611
X3.8417Y-2.4611
X3.8417Y-4.3902
X3.8445Y-3.2874
X3.8445Y-5.2165
X6.1252Y-2.4611
X6.1252Y-4.3902
X6.128Y-3.2874
X6.128Y-5.2165
T0
M30
